<svg width="25" height="25" viewBox="0 0 25 25" fill="none" xmlns="http://www.w3.org/2000/svg">
<g clip-path="url(#clip0_216_290)">
<path d="M24.91 24.93H12.46C5.58 24.93 0 19.35 0 12.46C0 5.58 5.59 0 12.47 0C19.05 0 24.49 5.12 24.91 11.68V24.93ZM12.46 2.08C6.72 2.08 2.07 6.73 2.07 12.47C2.07 18.21 6.72 22.86 12.46 22.86H22.83V11.78C22.46 6.32 17.93 2.08 12.46 2.08V2.08Z" fill="#C2CED5"/>
<path d="M13.48 7.27H7.25V9.35H13.48V7.27Z" fill="#C2CED5"/>
<path d="M17.64 11.43H7.25V13.51H17.64V11.43Z" fill="#C2CED5"/>
<path d="M17.64 15.58H7.25V17.66H17.64V15.58Z" fill="#C2CED5"/>
</g>
<defs>
<clipPath id="clip0_216_290">
<rect width="24.91" height="24.93" fill="white"/>
</clipPath>
</defs>
</svg>
