<svg width="389" height="389" viewBox="0 0 389 389" fill="none" xmlns="http://www.w3.org/2000/svg">
<path d="M88.1948 388.983C90.9271 309.778 123.043 235.697 179.364 179.375C235.686 123.054 309.767 90.9381 388.972 88.2058V0C176.742 5.7401 5.7401 176.742 0 388.983H88.1948Z" fill="black" fill-opacity="0.36"/>
<path d="M77.1776 198.364L81.7069 191.488C84.0318 187.956 88.7804 186.969 92.3226 189.305L124.279 210.339C127.811 212.664 128.798 217.413 126.462 220.955L121.944 227.831C121.615 228.325 120.957 228.467 120.463 228.138L77.4847 199.844C76.9912 199.515 76.8486 198.857 77.1776 198.364ZM121.527 215.296L88.8462 193.791C87.574 192.957 85.8632 193.308 85.0298 194.58L84.0318 196.105C83.7028 196.598 83.8454 197.267 84.3389 197.585L119.838 220.944C120.331 221.273 121 221.13 121.318 220.637L122.316 219.113C123.15 217.84 122.799 216.13 121.527 215.296Z" fill="#404040"/>
<path d="M100.92 172.208L98.8148 175.016C98.4639 175.487 98.5516 176.167 99.0232 176.518L113.357 187.276C113.828 187.627 114.508 187.54 114.859 187.057L116.965 184.25C117.316 183.778 117.996 183.679 118.467 184.03L120.331 185.423C120.803 185.774 120.902 186.454 120.551 186.925L118.445 189.733C118.094 190.204 118.182 190.884 118.664 191.235L133.02 202.016C133.491 202.366 134.171 202.279 134.522 201.807L136.628 199C136.979 198.528 137.659 198.429 138.13 198.78L139.995 200.173C140.466 200.524 140.565 201.204 140.214 201.676L134.709 209.001C134.358 209.473 133.678 209.572 133.206 209.21L92.0594 178.36C91.5878 178.01 91.4891 177.33 91.8401 176.858L97.3453 169.532C97.6962 169.061 98.3762 168.962 98.8477 169.324L100.712 170.717C101.184 171.068 101.282 171.748 100.92 172.219V172.208Z" fill="#404040"/>
<path d="M145.357 188.23L147.606 185.544C147.989 185.094 148.658 185.028 149.119 185.412L150.906 186.903C151.356 187.287 151.422 187.956 151.038 188.417L145.16 195.447C144.776 195.896 144.107 195.962 143.647 195.578L104.189 162.579C103.739 162.196 103.673 161.527 104.057 161.066L106.305 158.379C106.689 157.93 107.358 157.864 107.818 158.248L143.844 188.384C144.305 188.768 144.974 188.702 145.357 188.252V188.23Z" fill="#404040"/>
<path d="M116.899 146.173L119.268 143.585C119.662 143.147 120.342 143.114 120.781 143.519L158.726 178.251C159.164 178.646 159.186 179.326 158.792 179.764L156.423 182.352C156.028 182.791 155.348 182.824 154.909 182.418L116.965 147.687C116.526 147.292 116.493 146.612 116.899 146.173Z" fill="#404040"/>
<path d="M136.123 126.422L138.328 124.273C138.777 123.834 139.512 123.867 139.907 124.361L172.686 164.257C173.037 164.685 173.004 165.321 172.609 165.705L167.422 170.793C167.027 171.188 166.391 171.199 165.975 170.837L126.791 137.214C126.319 136.808 126.286 136.073 126.736 135.634L128.94 133.474C129.335 133.09 129.971 133.068 130.388 133.43L164.494 162.689C164.549 162.733 164.626 162.656 164.582 162.601L136.058 127.881C135.707 127.453 135.74 126.817 136.134 126.433L136.123 126.422Z" fill="#404040"/>
<path d="M156.521 114.173L153.867 116.465C153.418 116.848 153.363 117.528 153.758 117.978L165.459 131.555C165.843 132.004 166.523 132.048 166.973 131.664L169.627 129.372C170.076 128.989 170.756 129.032 171.14 129.482L172.653 131.248C173.037 131.697 172.993 132.377 172.544 132.761L169.89 135.053C169.44 135.437 169.396 136.117 169.78 136.567L181.503 150.165C181.887 150.615 182.567 150.67 183.017 150.275L185.671 147.983C186.12 147.599 186.8 147.643 187.184 148.092L188.698 149.858C189.081 150.308 189.038 150.988 188.588 151.372L181.646 157.348C181.196 157.732 180.516 157.688 180.133 157.239L146.553 118.263C146.169 117.814 146.213 117.134 146.662 116.75L153.604 110.773C154.054 110.389 154.734 110.433 155.118 110.883L156.631 112.648C157.015 113.098 156.971 113.778 156.521 114.162V114.173Z" fill="#404040"/>
<path d="M189.279 116.772C191.231 117.035 193.073 118.044 194.356 119.733L206.639 135.898C207.001 136.369 206.902 137.038 206.431 137.4L203.634 139.528C203.163 139.889 202.494 139.791 202.132 139.319L189.586 122.803C188.665 121.586 186.932 121.356 185.726 122.277L184.267 123.385C183.795 123.747 183.708 124.415 184.059 124.887L197.624 142.741C197.986 143.212 197.888 143.881 197.416 144.243L194.62 146.371C194.148 146.733 193.479 146.634 193.117 146.162L161.994 105.213C161.632 104.741 161.731 104.072 162.202 103.71L168.76 98.7316C172.127 96.1654 176.93 96.8234 179.497 100.19L187.776 111.091C189.059 112.78 189.531 114.831 189.268 116.772H189.279ZM183.028 118.724C184.245 117.803 184.475 116.07 183.554 114.864L174.748 103.272C173.827 102.054 172.094 101.824 170.888 102.745L169.429 103.853C168.958 104.215 168.87 104.884 169.221 105.355L180.067 119.623C180.429 120.095 181.098 120.182 181.569 119.831L183.028 118.724Z" fill="#404040"/>
<path d="M193.282 81.6236L195.563 80.1212C196.133 79.7483 196.901 79.9896 197.153 80.6256L206.42 104.434C206.617 104.939 206.858 105.41 207.154 105.86L220.665 126.455C220.994 126.949 220.852 127.618 220.358 127.936L217.419 129.855C216.926 130.184 216.257 130.041 215.939 129.548L201.989 108.284L183.269 89.7279C182.787 89.2454 182.863 88.4448 183.434 88.072L185.726 86.5695C186.153 86.2954 186.713 86.3502 187.075 86.7011L198.414 97.942C198.535 98.0626 198.721 97.942 198.666 97.7775L192.876 82.8957C192.689 82.4242 192.876 81.8868 193.293 81.6126L193.282 81.6236Z" fill="#404040"/>
</svg>
