<svg width="398" height="1080" viewBox="0 0 398 1080" fill="none" xmlns="http://www.w3.org/2000/svg">
<path d="M0.100586 47.8814C125.217 181.938 193.876 355.688 193.876 539.982C193.876 724.276 125.217 898.026 0.100586 1032.08L144.414 1176.4C482.251 819.776 482.251 260.224 144.396 -96.4141L0.100586 47.8814Z" fill="black" fill-opacity="0.67"/>
<path d="M329.997 341.728L333.837 360.388C335.811 369.969 329.656 379.353 320.039 381.327L233.341 399.198C223.759 401.171 214.376 395.017 212.402 385.4L208.544 366.758C208.275 365.412 209.118 364.102 210.464 363.833L327.073 339.808C328.418 339.539 329.728 340.382 329.997 341.728ZM229.734 386.584L318.388 368.301C321.833 367.583 324.058 364.21 323.341 360.765L322.479 356.638C322.21 355.292 320.882 354.431 319.555 354.718L223.257 374.58C221.911 374.85 221.05 376.177 221.337 377.505L222.198 381.632C222.916 385.077 226.289 387.302 229.734 386.584Z" fill="#404040"/>
<path d="M333.945 423.366L332.796 415.328C332.599 413.982 331.343 413.013 329.997 413.211L288.945 419.06C287.599 419.257 286.63 420.513 286.845 421.877L287.994 429.915C288.191 431.261 287.24 432.535 285.894 432.732L280.566 433.504C279.22 433.701 277.946 432.75 277.749 431.404L276.6 423.366C276.403 422.021 275.147 421.052 273.783 421.267L232.659 427.116C231.313 427.314 230.344 428.57 230.542 429.915L231.69 437.953C231.887 439.299 230.936 440.573 229.591 440.77L224.262 441.542C222.916 441.739 221.642 440.788 221.445 439.443L218.466 418.45C218.269 417.104 219.22 415.83 220.584 415.651L338.376 398.803C339.722 398.605 340.996 399.556 341.193 400.902L344.172 421.895C344.369 423.241 343.418 424.515 342.055 424.694L336.726 425.465C335.38 425.663 334.106 424.712 333.927 423.348L333.945 423.366Z" fill="#404040"/>
<path d="M235.027 469.855L235.745 477.929C235.853 479.293 234.866 480.495 233.484 480.621L228.119 481.105C226.756 481.213 225.554 480.226 225.428 478.845L223.544 457.726C223.436 456.363 224.423 455.16 225.805 455.035L344.351 444.467C345.715 444.359 346.917 445.346 347.043 446.727L347.76 454.802C347.868 456.165 346.881 457.367 345.5 457.493L237.252 467.128C235.871 467.254 234.884 468.456 234.991 469.819L235.027 469.855Z" fill="#404040"/>
<path d="M350.398 492.104L350.757 500.214C350.829 501.578 349.77 502.744 348.388 502.798L229.483 508.055C228.119 508.127 226.971 507.05 226.899 505.687L226.541 497.577C226.469 496.213 227.527 495.047 228.909 494.993L347.814 489.736C349.178 489.664 350.344 490.723 350.398 492.104Z" fill="#404040"/>
<path d="M351.259 555.872L351.169 562.995C351.151 564.448 349.895 565.597 348.442 565.435L229.537 553.79C228.263 553.665 227.276 552.57 227.294 551.297L227.456 534.484C227.456 533.192 228.478 532.134 229.752 532.044L348.873 522.947C350.308 522.84 351.564 523.988 351.546 525.441L351.474 532.582C351.456 533.856 350.452 534.933 349.178 535.023L245.506 542.953C245.344 542.971 245.344 543.222 245.506 543.24L348.98 553.378C350.254 553.503 351.241 554.598 351.223 555.872H351.259Z" fill="#404040"/>
<path d="M337.928 609.287L338.52 601.195C338.628 599.831 337.605 598.629 336.223 598.539L294.866 595.471C293.502 595.363 292.318 596.404 292.21 597.768L291.618 605.86C291.511 607.223 290.326 608.264 288.963 608.156L283.598 607.744C282.234 607.636 281.194 606.452 281.301 605.088L281.893 596.996C282.001 595.632 280.96 594.448 279.597 594.341L238.167 591.272C236.804 591.165 235.602 592.188 235.512 593.569L234.92 601.661C234.812 603.025 233.628 604.066 232.264 603.958L226.899 603.545C225.536 603.438 224.495 602.253 224.603 600.89L226.182 579.753C226.289 578.39 227.474 577.349 228.837 577.457L347.545 586.284C348.909 586.392 349.949 587.576 349.842 588.94L348.263 610.076C348.155 611.44 346.971 612.481 345.607 612.373L340.242 611.96C338.879 611.853 337.838 610.668 337.946 609.305L337.928 609.287Z" fill="#404040"/>
<path d="M280.081 658.629C276.457 661.392 271.792 662.756 266.929 662.092L220.386 655.74C219.023 655.561 218.09 654.305 218.269 652.941L219.364 644.885C219.543 643.521 220.799 642.588 222.163 642.768L269.71 649.263C273.209 649.747 276.421 647.289 276.887 643.808L277.462 639.61C277.641 638.246 276.69 637.008 275.344 636.811L223.939 629.795C222.575 629.616 221.642 628.36 221.822 626.996L222.916 618.94C223.096 617.576 224.352 616.643 225.715 616.823L343.634 632.899C344.997 633.079 345.93 634.335 345.751 635.698L343.167 654.574C341.857 664.281 332.922 671.063 323.215 669.753L291.833 665.465C286.971 664.801 282.844 662.217 280.099 658.611L280.081 658.629ZM287.115 645.208C286.63 648.707 289.088 651.918 292.569 652.385L325.942 656.942C329.441 657.427 332.653 654.968 333.119 651.488L333.693 647.289C333.873 645.925 332.922 644.687 331.576 644.49L290.488 638.892C289.124 638.713 287.886 639.663 287.689 641.009L287.115 645.208Z" fill="#404040"/>
<path d="M331.038 722.684L329.764 728.874C329.441 730.417 327.79 731.278 326.337 730.65L272.222 706.858C271.074 706.356 269.908 705.979 268.688 705.728L212.886 694.137C211.541 693.868 210.679 692.54 210.966 691.212L212.635 683.264C212.904 681.918 214.232 681.057 215.56 681.344L273.173 693.312L334.16 693.043C335.739 693.043 336.923 694.478 336.6 696.021L335.308 702.229C335.057 703.377 334.052 704.203 332.886 704.221L295.942 704.382C295.548 704.382 295.44 704.885 295.799 705.064L329.62 719.938C330.697 720.405 331.271 721.589 331.038 722.72V722.684Z" fill="#404040"/>
</svg>
