<svg width="25" height="25" viewBox="0 0 25 25" fill="none" xmlns="http://www.w3.org/2000/svg">
<g clip-path="url(#clip0_46_3895)">
<path d="M12.5 17.7084C12.0687 17.7084 11.7188 17.3584 11.7188 16.9271V0.78125C11.7188 0.349998 12.0687 0 12.5 0C12.9313 0 13.2812 0.349998 13.2812 0.78125V16.9271C13.2812 17.3584 12.9313 17.7084 12.5 17.7084Z" fill="#1B2634"/>
<path d="M12.5 17.7086C12.2999 17.7086 12.1 17.6325 11.9478 17.4793L7.78119 13.3127C7.47601 13.0075 7.47601 12.5128 7.78119 12.2074C8.08636 11.9022 8.58113 11.9022 8.8865 12.2074L12.5009 15.822L16.1155 12.2074C16.4207 11.9022 16.9157 11.9022 17.2208 12.2074C17.526 12.5128 17.526 13.0075 17.2208 13.3127L13.0541 17.4793C12.8999 17.6325 12.7001 17.7086 12.5 17.7086Z" fill="#1B2634"/>
<path d="M22.1354 24.9999H2.86465C1.28441 24.9999 0 23.7155 0 22.1353V17.4478C0 17.0165 0.349998 16.6665 0.78125 16.6665C1.2125 16.6665 1.5625 17.0165 1.5625 17.4478V22.1353C1.5625 22.853 2.14691 23.4374 2.86465 23.4374H22.1354C22.8531 23.4374 23.4375 22.853 23.4375 22.1353V17.4478C23.4375 17.0165 23.7875 16.6665 24.2188 16.6665C24.65 16.6665 25 17.0165 25 17.4478V22.1353C25 23.7155 23.7156 24.9999 22.1354 24.9999Z" fill="#1B2634"/>
</g>
<defs>
<clipPath id="clip0_46_3895">
<rect width="25" height="25" fill="white"/>
</clipPath>
</defs>
</svg>
