<svg width="398" height="1080" viewBox="0 0 398 1080" fill="none" xmlns="http://www.w3.org/2000/svg">
<path d="M0.0866699 48.5172C125.199 182.57 193.857 356.315 193.857 540.604C193.857 724.893 125.199 898.637 0.0866699 1032.69L144.396 1177C482.242 820.372 482.242 260.835 144.396 -95.7922L0.0866699 48.5172Z" fill="black" fill-opacity="0.67"/>
<path d="M242.298 645.494L241.204 653.37C241.024 654.698 241.957 655.918 243.267 656.115L283.511 661.695C284.839 661.875 286.059 660.942 286.256 659.632L287.351 651.755C287.53 650.428 288.75 649.495 290.096 649.692L295.317 650.428C296.645 650.607 297.578 651.827 297.38 653.173L296.286 661.049C296.106 662.377 297.039 663.597 298.349 663.794L338.647 669.392C339.975 669.572 341.195 668.639 341.392 667.329L342.487 659.452C342.666 658.125 343.904 657.21 345.232 657.389L350.453 658.125C351.78 658.304 352.696 659.542 352.516 660.87L349.663 681.449C349.484 682.777 348.264 683.71 346.918 683.513L231.443 667.508C230.116 667.329 229.183 666.109 229.38 664.763L232.233 644.184C232.412 642.856 233.632 641.923 234.978 642.12L240.199 642.856C241.527 643.035 242.46 644.256 242.262 645.601L242.298 645.494Z" fill="#404040"/>
<path d="M234.296 627.229L235.785 608.659C236.557 599.096 244.918 591.991 254.463 592.744L340.872 599.67C350.435 600.441 357.54 608.802 356.786 618.347L355.279 636.935C355.171 638.263 353.987 639.268 352.66 639.16L236.467 629.83C235.139 629.723 234.117 628.556 234.242 627.211L234.296 627.229ZM340.836 612.516L252.471 605.429C249.026 605.142 246.012 607.726 245.743 611.153L245.42 615.279C245.312 616.607 246.317 617.791 247.645 617.899L343.617 625.596C344.945 625.704 346.129 624.699 346.236 623.371L346.559 619.245C346.846 615.8 344.263 612.785 340.836 612.516Z" fill="#404040"/>
<path d="M237.615 576.435L237.849 568.486C237.884 567.159 239.015 566.1 240.343 566.136L356.858 569.688C358.186 569.724 359.244 570.855 359.208 572.182L358.975 580.131C358.939 581.458 357.809 582.517 356.481 582.481L239.966 578.929C238.638 578.893 237.579 577.762 237.615 576.435Z" fill="#404040"/>
<path d="M238.279 551.19L237.651 517.621C237.633 516.275 238.692 515.18 240.02 515.145L245.295 515.037C246.64 515.019 247.735 516.078 247.771 517.405L247.932 525.354C247.95 526.699 249.08 527.758 250.408 527.722L356.804 525.712C358.15 525.694 359.244 526.753 359.28 528.081L359.442 536.029C359.46 537.375 358.401 538.469 357.074 538.505L250.677 540.515C249.332 540.533 248.255 541.645 248.309 542.991L248.47 550.939C248.488 552.285 247.43 553.379 246.102 553.415L240.827 553.523C239.481 553.54 238.387 552.482 238.351 551.154L238.279 551.19Z" fill="#404040"/>
<path d="M236.557 500.271L236.019 492.34C235.929 490.995 236.934 489.846 238.279 489.757L354.58 481.755C355.925 481.665 357.073 482.67 357.163 484.015L357.701 491.946C357.791 493.291 356.786 494.44 355.441 494.529L239.14 502.531C237.795 502.621 236.646 501.617 236.557 500.271Z" fill="#404040"/>
<path d="M231.372 446.965L230.618 440.757C230.457 439.411 231.407 438.209 232.753 438.048L348.479 424.232C349.825 424.071 351.027 425.022 351.171 426.35L352.157 434.621C352.301 435.769 351.583 436.882 350.471 437.24L273.23 461.516C273.069 461.57 273.123 461.803 273.284 461.785L351.816 452.401C353.162 452.24 354.364 453.191 354.526 454.536L355.279 460.744C355.441 462.09 354.49 463.292 353.144 463.454L237.418 477.269C236.072 477.431 234.87 476.48 234.709 475.134L233.776 467.275C233.632 466.127 234.35 465.015 235.462 464.656L314.838 439.716C314.999 439.663 314.945 439.429 314.784 439.447L234.063 449.082C232.717 449.244 231.515 448.293 231.354 446.947L231.372 446.965Z" fill="#404040"/>
<path d="M261.729 384.06L263.183 391.865C263.434 393.193 262.555 394.467 261.245 394.7L239.966 398.683C236.575 399.311 234.332 402.594 234.978 405.967L235.032 406.272C235.66 409.663 238.943 411.906 242.316 411.26L329.479 394.969C332.87 394.341 335.112 391.058 334.466 387.684L334.413 387.379C333.785 383.988 330.501 381.746 327.128 382.392L305.849 386.375C304.521 386.626 303.66 387.882 303.911 389.21L304.18 390.735C304.432 392.062 303.552 393.336 302.243 393.569L297.075 394.538C295.748 394.79 294.474 393.91 294.24 392.601L291.603 378.48C291.352 377.152 292.231 375.879 293.541 375.645L323.827 369.976C333.264 368.217 342.307 374.425 344.083 383.845L344.765 387.505C346.523 396.943 340.316 405.985 330.896 407.762L245.671 423.694C236.234 425.452 227.191 419.244 225.415 409.825L224.733 406.165C222.975 396.727 229.183 387.684 238.602 385.908L258.931 382.122C260.258 381.871 261.532 382.75 261.765 384.06L261.729 384.06Z" fill="#404040"/>
</svg>
