<svg width="389" height="389" viewBox="0 0 389 389" fill="none" xmlns="http://www.w3.org/2000/svg">
<path d="M388.983 300.777C309.778 298.044 235.697 265.928 179.375 209.607C123.054 153.286 90.9381 79.2045 88.2058 0H0C5.7401 212.24 176.742 383.242 388.983 388.983V300.788V300.777Z" fill="black" fill-opacity="0.36"/>
<path d="M132.515 192.356L130.443 189.614C130.092 189.154 129.434 189.066 128.973 189.406L114.969 200C114.508 200.35 114.42 201.008 114.76 201.469L116.833 204.211C117.184 204.671 117.096 205.329 116.625 205.68L114.804 207.051C114.344 207.402 113.686 207.314 113.335 206.843L111.262 204.101C110.911 203.64 110.253 203.553 109.792 203.893L95.7661 214.497C95.3055 214.848 95.2177 215.506 95.5577 215.967L97.6304 218.709C97.9813 219.169 97.8826 219.827 97.422 220.178L95.6016 221.549C95.141 221.9 94.483 221.801 94.132 221.341L88.7145 214.179C88.3636 213.719 88.4513 213.061 88.9229 212.71L129.105 182.31C129.565 181.959 130.223 182.047 130.574 182.519L135.992 189.68C136.343 190.141 136.255 190.799 135.783 191.149L133.963 192.52C133.502 192.871 132.844 192.783 132.493 192.312L132.515 192.356Z" fill="#404040"/>
<path d="M140.543 195.492L145.763 201.623C148.45 204.781 148.066 209.508 144.919 212.194L116.394 236.486C113.236 239.172 108.509 238.789 105.822 235.641L100.602 229.5C100.23 229.061 100.284 228.392 100.723 228.019L139.084 195.361C139.523 194.988 140.192 195.032 140.565 195.481L140.543 195.492ZM112.479 232.549L141.651 207.709C142.791 206.744 142.923 205.033 141.958 203.904L140.795 202.544C140.422 202.105 139.753 202.05 139.315 202.423L107.632 229.401C107.193 229.774 107.138 230.443 107.511 230.882L108.674 232.241C109.639 233.382 111.35 233.514 112.479 232.549Z" fill="#404040"/>
<path d="M155.052 212.03L157.41 214.53C157.804 214.947 157.783 215.616 157.366 216.011L120.671 250.534C120.255 250.929 119.586 250.907 119.191 250.49L116.833 247.99C116.438 247.573 116.46 246.904 116.877 246.509L153.571 211.986C153.988 211.591 154.657 211.613 155.052 212.03Z" fill="#404040"/>
<path d="M162.564 219.948L173.015 230.015C173.432 230.421 173.443 231.079 173.048 231.496L171.469 233.141C171.063 233.558 170.405 233.569 169.988 233.174L167.51 230.794C167.093 230.388 166.424 230.41 166.029 230.827L134.127 263.957C133.722 264.374 133.064 264.385 132.647 263.99L130.168 261.61C129.752 261.205 129.741 260.547 130.136 260.13L162.038 227C162.443 226.583 162.432 225.914 162.005 225.519L159.526 223.139C159.11 222.734 159.099 222.076 159.493 221.659L161.073 220.014C161.478 219.597 162.136 219.586 162.553 219.981L162.564 219.948Z" fill="#404040"/>
<path d="M178.652 234.983L181.24 237.242C181.679 237.626 181.723 238.284 181.339 238.723L148.241 276.711C147.858 277.15 147.2 277.194 146.761 276.81L144.173 274.551C143.734 274.167 143.69 273.509 144.074 273.07L177.172 235.082C177.555 234.643 178.213 234.599 178.652 234.983Z" fill="#404040"/>
<path d="M196.528 249.689L198.655 251.356C199.116 251.718 199.193 252.376 198.831 252.837L167.685 292.426C167.324 292.887 166.666 292.964 166.216 292.602L163.386 290.376C162.992 290.069 162.871 289.509 163.101 289.06L179.288 258.035C179.321 257.969 179.233 257.914 179.189 257.969L158.057 284.838C157.695 285.298 157.037 285.375 156.576 285.013L154.449 283.346C153.988 282.984 153.911 282.326 154.273 281.866L185.418 242.276C185.78 241.815 186.438 241.739 186.899 242.101L189.586 244.217C189.981 244.524 190.101 245.083 189.871 245.533L173.235 277.413C173.202 277.479 173.289 277.534 173.333 277.479L195.058 249.865C195.42 249.404 196.078 249.328 196.539 249.689H196.528Z" fill="#404040"/>
<path d="M206.474 278.192L203.645 276.251C203.163 275.922 203.042 275.264 203.371 274.792L208.657 267.072C209.501 265.843 209.183 264.155 207.955 263.321L207.845 263.244C206.617 262.4 204.928 262.718 204.095 263.946L182.436 295.563C181.591 296.791 181.909 298.48 183.137 299.314L183.247 299.39C184.475 300.235 186.164 299.917 186.998 298.689L192.284 290.968C192.613 290.485 192.492 289.838 192.009 289.509L191.461 289.126C190.979 288.797 190.858 288.139 191.187 287.667L192.47 285.792C192.799 285.309 193.457 285.189 193.929 285.518L199.05 289.027C199.533 289.356 199.653 290.014 199.324 290.485L191.801 301.474C189.454 304.896 184.793 305.762 181.372 303.426L180.045 302.516C176.623 300.169 175.757 295.508 178.093 292.087L199.269 261.172C201.616 257.75 206.277 256.884 209.699 259.22L211.026 260.13C214.447 262.477 215.314 267.137 212.978 270.559L207.922 277.929C207.593 278.411 206.935 278.532 206.464 278.203L206.474 278.192Z" fill="#404040"/>
</svg>
