<svg width="25" height="25" viewBox="0 0 25 25" fill="none" xmlns="http://www.w3.org/2000/svg">
<path d="M12.47 24.93C5.58 24.93 0 19.35 0 12.47C0 5.59 5.58 0 12.47 0C19.36 0 24.94 5.58 24.94 12.47C24.94 19.35 19.36 24.93 12.47 24.94V24.93ZM12.47 2.07C6.73 2.08 2.08 6.73 2.08 12.47C2.08 18.21 6.73 22.86 12.47 22.86C18.21 22.86 22.86 18.21 22.86 12.47C22.86 6.73 18.21 2.09 12.47 2.08V2.07Z" fill="white"/>
<path d="M13.51 15.58H11.43V14.81C11.4 13.32 12.18 11.92 13.47 11.17C14.26 10.74 14.68 9.84997 14.51 8.95997C14.34 8.11997 13.69 7.46997 12.85 7.29997C11.72 7.08997 10.64 7.83997 10.43 8.95997C10.41 9.07997 10.4 9.20997 10.4 9.32997H8.32001C8.32001 7.02997 10.18 5.16997 12.48 5.17997C14.78 5.17997 16.64 7.03997 16.63 9.33997C16.63 10.85 15.81 12.25 14.48 12.98C13.86 13.37 13.49 14.06 13.51 14.8V15.57V15.58Z" fill="white"/>
<path d="M13.51 17.6599H11.43V19.7399H13.51V17.6599Z" fill="white"/>
</svg>
