<svg width="25" height="25" viewBox="0 0 25 25" fill="none" xmlns="http://www.w3.org/2000/svg">
<g clip-path="url(#clip0_216_276)">
<path d="M13.86 0.529998C13.07 -0.180002 11.87 -0.180002 11.08 0.529998L0 10.5V21.3C0 23.14 1.49 24.62 3.32 24.62H21.61C23.45 24.62 24.93 23.13 24.93 21.3V10.5L13.86 0.529998ZM15.59 22.55H9.36V17.33C9.36 15.61 10.76 14.21 12.48 14.21C14.2 14.21 15.6 15.61 15.6 17.33V22.55H15.59ZM22.86 21.3C22.86 21.99 22.3 22.55 21.61 22.55H17.66V17.33C17.66 14.46 15.33 12.14 12.47 12.14C9.61 12.14 7.28 14.47 7.28 17.33V22.55H3.32C2.63 22.55 2.07 21.99 2.07 21.3V11.43L12.47 2.08L22.86 11.43V21.31V21.3Z" fill="white"/>
</g>
<defs>
<clipPath id="clip0_216_276">
<rect width="24.93" height="24.63" fill="white"/>
</clipPath>
</defs>
</svg>
