<svg width="25" height="25" viewBox="0 0 25 25" fill="none" xmlns="http://www.w3.org/2000/svg">
<g clip-path="url(#clip0_216_961)">
<path d="M13.86 0.530059C13.07 -0.179941 11.87 -0.179941 11.08 0.530059L0 10.5001V21.3001C0 23.1401 1.49 24.6201 3.32 24.6201H21.61C23.45 24.6201 24.93 23.1301 24.93 21.3001V10.5001L13.86 0.530059ZM15.59 22.5501H9.36V17.3301C9.36 15.6101 10.76 14.2101 12.48 14.2101C14.2 14.2101 15.6 15.6101 15.6 17.3301V22.5501H15.59ZM22.86 21.3001C22.86 21.9901 22.3 22.5501 21.61 22.5501H17.66V17.3301C17.66 14.4601 15.33 12.1401 12.47 12.1401C9.61 12.1401 7.28 14.4701 7.28 17.3301V22.5501H3.32C2.63 22.5501 2.07 21.9901 2.07 21.3001V11.4301L12.47 2.08006L22.86 11.4301V21.3101V21.3001Z" fill="#C2CED5"/>
</g>
<defs>
<clipPath id="clip0_216_961">
<rect width="24.93" height="24.63" fill="white"/>
</clipPath>
</defs>
</svg>
