<svg width="337" height="89" viewBox="0 0 337 89" fill="none" xmlns="http://www.w3.org/2000/svg">
<path d="M50.6319 8.99011C52.7029 12.5089 54.7739 16.0063 56.8449 19.5251C58.0099 21.5205 59.1533 23.5374 60.3182 25.5328C60.9654 26.6485 61.6341 27.7213 62.2813 28.837C62.4108 29.0731 62.6049 29.3091 62.3676 29.7167C60.7281 32.4202 59.1748 35.1666 57.4921 38.0417C56.6508 36.6256 55.8742 35.3168 55.0975 34.0079C51.9694 28.6868 48.8413 23.3657 45.7133 18.0446C42.8225 13.1097 39.9533 8.17478 37.084 3.23987C36.4584 2.18852 35.7465 1.18009 35.3366 0H91.3618C90.0458 2.31726 88.7083 4.63452 87.3924 6.95178C87.0688 7.50964 86.702 8.06751 86.3568 8.60391C74.7937 8.60391 63.2306 8.60391 51.6674 8.60391C51.3654 8.60391 51.085 8.60391 50.7829 8.62537C50.5456 8.64682 50.5456 8.79701 50.6535 8.96866L50.6319 8.99011Z" fill="#0095CF"/>
<path d="M27.9586 30.2531C29.3609 32.9351 31.0004 35.467 32.4458 38.1061C33.7186 40.4448 35.2072 42.6548 36.48 44.9935C38.098 47.9544 39.8886 50.8081 41.5065 53.7476C42.8009 56.1078 44.2895 58.3821 45.6054 60.7423C47.2234 63.6603 49.1218 66.4281 50.5456 69.4535C50.5888 69.5607 50.7182 69.6466 50.7829 69.7538C51.1497 70.3761 51.4301 70.4834 51.84 69.7324C52.9618 67.7155 54.1699 65.7416 55.3348 63.7676C58.0962 59.0902 60.8575 54.4127 63.6189 49.7353C67.3079 43.4701 70.9969 37.2049 74.7074 30.9397C74.8584 30.6823 75.031 30.4677 75.2036 30.2102C78.3317 30.2102 81.4813 30.2102 84.6094 30.1888C84.8252 30.1888 85.0841 30.1458 85.2135 30.4033C84.1133 32.3558 83.013 34.3083 81.8912 36.2394C79.7339 39.9513 77.5766 43.6847 75.3978 47.3966C72.1402 52.9323 68.9043 58.4679 65.6683 64.0251C62.8207 68.8956 59.9946 73.7876 57.2117 78.6796C55.3996 81.8551 53.5227 85.0092 51.5811 88.3134C50.4809 86.4682 49.467 84.7088 48.4315 82.9708C44.8503 76.8558 41.2908 70.7623 37.7312 64.6258C34.2795 58.704 30.871 52.7606 27.4193 46.8387C24.3559 41.5605 21.2494 36.3038 18.1645 31.047C18.0566 30.8539 18.0135 30.6179 17.9488 30.4248C18.0566 30.2102 18.2508 30.2102 18.4449 30.2102C21.6162 30.2102 24.7874 30.2317 27.9586 30.2531Z" fill="#0095CF"/>
<path d="M57.9236 18.6454C56.6292 17.1649 55.9389 15.3197 54.8818 13.689C54.1915 12.6377 53.5443 11.5649 53.0912 10.3848C53.4148 10.02 53.8247 10.1917 54.1915 10.1917C75.9802 10.1917 97.7474 10.1917 119.536 10.1917C119.86 10.1917 120.183 10.2131 120.529 10.2346C119.989 11.8438 118.932 13.1741 118.091 14.6331C114.682 20.5335 111.166 26.391 107.714 32.2486C103.874 38.7712 100.034 45.2724 96.1942 51.7951C93.1739 56.9016 90.1753 62.0297 87.1766 67.1577C87.0041 67.4366 86.8099 67.6941 86.551 68.0588C85.5802 66.3852 84.6526 64.776 83.7249 63.1668C83.2935 62.4159 82.9699 61.5791 82.4521 60.9139C81.6755 59.9269 81.7618 59.0902 82.409 58.1032C83.5955 56.2365 84.7173 54.3269 85.8391 52.4173C87.1335 50.1859 88.471 47.9759 89.7438 45.723C90.8225 43.7919 91.9874 41.9038 93.0445 39.9727C94.0153 38.1919 95.0939 36.4754 96.1078 34.7375C97.1649 32.9137 98.2652 31.0899 99.3438 29.2662C100.422 27.4424 101.48 25.6186 102.558 23.7948C103.464 22.2715 104.37 20.7266 105.255 19.1818C105.751 18.2377 104.867 18.6668 104.651 18.6668C95.0939 18.6454 85.5371 18.6668 75.9802 18.6454C69.9613 18.6454 63.964 18.6454 57.9452 18.6454H57.9236Z" fill="#0095CF"/>
<path d="M38.7236 28.837H15.5326C27.2036 48.8985 38.8315 68.8312 50.4377 88.764C50.1573 89.0858 49.8337 88.9785 49.5533 88.9785C46.6625 88.9785 43.7717 88.9785 40.8809 88.9785C40.2768 88.9785 39.9533 88.764 39.6512 88.249C29.3609 70.5477 19.0274 52.8679 8.71552 35.1666C5.91102 30.3819 3.10653 25.5542 0.302032 20.7481C0.194167 20.555 0.107865 20.3619 0 20.1473C0.366742 19.9327 0.733475 20.0186 1.07864 20.0186C11.6063 20.0186 22.1124 20.0186 32.64 19.9971C33.4166 19.9971 33.7834 20.2546 34.1501 20.8983C35.4661 23.237 36.8252 25.5328 38.1843 27.8286C38.3353 28.1075 38.4863 28.3865 38.7236 28.837Z" fill="#007FA6"/>
<path d="M121.801 10.6637C123.484 13.4959 125.059 16.1136 126.634 18.7312C126.893 19.1389 126.849 19.4822 126.612 19.8898C123.872 24.5029 121.154 29.1374 118.458 33.7719C116.451 37.2049 114.488 40.6379 112.503 44.0709C109.16 49.7997 105.794 55.5285 102.472 61.2572C99.7321 65.9561 97.0355 70.6765 94.3173 75.3754C91.9227 79.5164 89.5065 83.636 87.0903 87.7556C87.004 87.8843 86.9177 88.013 86.7451 88.2919C85.7744 86.6184 84.8252 85.0521 83.9191 83.4858C80.64 77.8857 77.3609 72.2642 74.0818 66.6642C72.7658 64.3898 71.4714 62.094 70.1339 59.8197C69.9398 59.4764 69.9182 59.1975 70.1339 58.8327C71.6225 56.2794 73.111 53.7261 74.578 51.1729C74.8584 50.6794 75.0526 50.7652 75.3115 51.1943C76.3038 52.8894 77.3178 54.5629 78.2885 56.258C79.4535 58.2748 80.6184 60.3132 81.7834 62.3515C83.0346 64.5615 84.2643 66.7929 85.5371 68.9814C85.8175 69.4749 86.2058 69.9041 86.4647 70.655C98.2867 50.5935 110.022 30.7037 121.823 10.6637H121.801Z" fill="#0095CF"/>
<path d="M34.0638 0.472031C34.9699 1.99542 35.8112 3.41153 36.631 4.84909C43.1245 15.9848 49.5964 27.0991 56.0899 38.2133C56.5645 39.0287 56.6292 39.6295 56.0899 40.4877C54.515 42.9981 53.0697 45.5943 51.4948 48.2977C50.5672 46.71 49.6827 45.2295 48.8198 43.749C42.2184 32.4631 35.6386 21.1772 29.0373 9.89127C28.8647 9.61234 28.7137 9.39779 28.9294 9.03304C30.6121 6.24374 32.2733 3.43297 34.0207 0.493484L34.0638 0.472031Z" fill="#007FA6"/>
<path d="M103.184 20.0829C101.523 22.8722 99.9263 25.5542 98.373 28.2792C98.0494 28.837 97.6395 28.8156 97.1434 28.8156C89.9164 28.8156 82.6679 28.8156 75.4409 28.8156C71.795 28.8156 68.1492 28.8156 64.5034 28.8156C64.0719 28.8156 63.6836 28.8585 63.4031 28.3864C61.8283 25.6401 60.2319 22.9151 58.5923 20.0829H103.184Z" fill="#007FA6"/>
<path d="M73.5641 30.2531C72.7227 32.1413 71.5362 33.8578 70.5007 35.6601C67.2647 41.2172 63.9856 46.7314 60.7065 52.2886C57.6216 57.5239 54.5366 62.7377 51.4085 68.0588C50.373 66.7715 49.8337 65.291 48.9924 63.9822C48.1942 62.7592 47.5901 61.4289 46.8566 60.2059C46.5546 59.7124 46.5762 59.2833 46.8135 58.8541C48.6472 55.743 50.5025 52.6533 52.3146 49.5422C53.7816 47.0533 55.2054 44.5644 56.6508 42.0755C58.0962 39.5865 59.5416 37.1191 60.987 34.6302C61.8499 33.1497 62.6912 31.6907 63.5542 30.2102C66.8764 30.2102 70.2202 30.1244 73.5425 30.2531H73.5641Z" fill="#0095CF"/>
<path d="M69.1631 60.5492C70.9537 63.6174 72.658 66.5354 74.3622 69.4535C77.9002 75.5256 81.4382 81.6191 84.9977 87.6912C85.1056 87.8843 85.2135 88.0989 85.3429 88.292C85.7528 88.8713 85.4939 88.9785 84.9115 88.9785C81.9128 88.9785 78.9357 88.9571 75.9371 88.9785C75.2683 88.9785 75.031 88.6352 74.7721 88.1632C71.3636 82.3057 67.9766 76.4267 64.5034 70.6121C64.0072 69.7753 64.0935 69.2389 64.5465 68.4665C66.0998 65.8918 67.5883 63.2956 69.1847 60.5492H69.1631Z" fill="#007FA6"/>
<path d="M0.0647278 18.6025C0.733492 17.358 1.40225 16.1135 2.07101 14.8691C2.73978 13.6461 3.49483 12.466 4.12045 11.243C4.31461 10.8783 4.65978 10.6208 4.78922 10.2131C12.4261 10.2131 20.0629 10.2131 27.7213 10.2131C29.3177 12.981 30.9357 15.7273 32.5321 18.4952C32.5321 18.5381 32.5321 18.581 32.5321 18.6454H32.5106C21.7888 18.6454 11.067 18.6668 0.345154 18.6668C0.258862 18.6668 0.15102 18.6454 0.0647278 18.6239V18.6025Z" fill="#0095CF"/>
<path d="M88.3632 8.2606C89.6575 6.00771 90.9519 3.75482 92.2463 1.50192C92.613 0.858239 92.9366 1.09426 93.1955 1.50192C94.5546 3.79773 95.9137 6.09354 97.2728 8.4108C97.1649 8.56099 97.0139 8.60391 96.8413 8.60391C93.9721 8.60391 91.1029 8.58245 88.2337 8.56099C88.2337 8.51808 88.2337 8.45371 88.2553 8.43225L88.3632 8.2606Z" fill="#0095CF"/>
<path d="M120.507 10.2346C120.183 10.2346 119.86 10.1917 119.515 10.1917C97.7258 10.1917 75.9587 10.1917 54.1699 10.1917C53.8031 10.1917 53.3717 10.02 53.0697 10.3848C52.8755 10.2775 52.8324 10.1058 53.0697 10.0415C53.3501 9.97711 53.6521 9.99855 53.9542 9.99855C75.8724 9.99855 97.769 9.99855 119.687 9.99855C119.968 9.99855 120.27 10.0415 120.55 10.0629C120.55 10.0629 120.593 10.1058 120.572 10.1273C120.572 10.1487 120.529 10.1917 120.507 10.2131V10.2346Z" fill="#007FA6"/>
<path d="M57.9236 18.6454C63.9425 18.6454 69.9398 18.6454 75.9586 18.6454C85.5155 18.6454 95.0724 18.6454 104.629 18.6668C104.823 18.6668 105.729 18.2377 105.233 19.1818C105.169 18.5166 104.651 18.7741 104.327 18.7741C100.746 18.7741 97.165 18.7741 93.5838 18.7741C82.0423 18.7741 70.5007 18.7741 58.9591 18.7741C58.6139 18.7741 58.2472 18.9243 57.9236 18.6454Z" fill="#007FA6"/>
<path d="M50.6319 8.99011C50.5456 8.81846 50.5456 8.66828 50.7614 8.64682C51.0634 8.62536 51.3438 8.62537 51.6458 8.62537C63.209 8.62537 74.7721 8.62537 86.3353 8.62537C86.0332 9.01158 85.6018 8.81847 85.235 8.81847C74.0818 8.81847 62.907 8.81847 51.7537 8.81847C51.387 8.81847 50.9555 8.64681 50.6319 8.99011Z" fill="#007FA6"/>
<path d="M0.0647278 18.6025C0.0647278 18.6025 0.258862 18.6454 0.345154 18.6454C11.067 18.6454 21.7888 18.6454 32.5106 18.6454C32.2301 18.8814 31.8849 18.7741 31.5613 18.7741C21.3573 18.7741 11.1533 18.7741 0.970795 18.7741C0.668772 18.7741 0.323604 18.9458 0.0647278 18.6239V18.6025Z" fill="#007FA6"/>
<path d="M27.7213 10.2131C20.0845 10.2131 12.4476 10.2131 4.78922 10.2131C4.94023 9.89128 5.24225 10.02 5.47955 10.02C12.6634 10.02 19.8472 10.02 27.031 10.02C27.2683 10.02 27.5703 9.86982 27.7213 10.1917V10.2131Z" fill="#007FA6"/>
<path d="M85.2135 30.4033C85.0625 30.1673 84.8252 30.1888 84.6094 30.1888C81.4813 30.1888 78.3317 30.1888 75.2036 30.2102C75.3115 29.8884 75.5703 29.9957 75.7645 29.9957C78.7631 29.9957 81.7618 29.9957 84.7604 29.9957C84.8899 29.9957 85.5802 29.6524 85.2135 30.3604L85.2135 30.4033Z" fill="#007FA6"/>
<path d="M27.9586 30.2531C24.7874 30.2531 21.6162 30.2317 18.4449 30.2102C18.2508 30.2102 18.0566 30.2102 17.9488 30.4248C17.582 29.7382 18.2292 30.0386 18.3802 30.0386C20.1061 30.0171 21.8319 30.0386 23.5577 30.0386C24.7227 30.0386 25.9092 30.0386 27.0742 30.0386C27.3546 30.0386 27.7429 29.8455 27.9371 30.2531H27.9586Z" fill="#007FA6"/>
<path d="M73.5641 30.2531C70.2418 30.103 66.898 30.2102 63.5757 30.2102C63.6189 30.06 63.7483 30.0386 63.8777 30.0386C67.049 30.0386 70.1986 30.0386 73.3699 30.0386C73.4562 30.0386 73.5425 30.0815 73.6288 30.1244L73.5641 30.2746V30.2531Z" fill="#007FA6"/>
<path d="M88.2337 8.56099C91.1029 8.56099 93.9721 8.58246 96.8413 8.60391C97.0139 8.60391 97.1649 8.56099 97.2728 8.4108C97.5101 8.6039 97.4454 8.77556 97.1865 8.77556C94.231 8.77556 91.2539 8.75409 88.2984 8.73264C88.2984 8.73264 88.2553 8.62536 88.2337 8.56099Z" fill="#007FA6"/>
<path d="M32.5537 18.6239C32.5537 18.6239 32.5537 18.5381 32.5537 18.4737L32.6831 18.5595L32.5537 18.6239Z" fill="#007FA6"/>
<path d="M176.964 24.9319H174.353C173.879 24.9319 173.49 25.2967 173.447 25.7687L169.931 65.8487C169.931 65.8487 169.823 65.9131 169.823 65.8487L166.306 25.7687C166.263 25.2967 165.875 24.9319 165.4 24.9319H163.071C162.596 24.9319 162.208 25.2967 162.164 25.7687L158.648 65.8917C158.648 65.8917 158.54 65.956 158.54 65.8917L155.024 25.7687C154.981 25.2967 154.592 24.9319 154.118 24.9319H151.529C150.99 24.9319 150.558 25.3825 150.623 25.9189L154.463 69.6679C154.506 70.14 154.894 70.5047 155.369 70.5047H161.129C161.604 70.5047 161.992 70.14 162.035 69.6679L164.235 44.5214L166.436 69.6679C166.479 70.14 166.867 70.5047 167.342 70.5047H173.124C173.598 70.5047 173.986 70.14 174.03 69.6679L177.87 25.9189C177.913 25.3825 177.481 24.9319 176.942 24.9319H176.964Z" fill="white"/>
<path d="M207.619 66.707H204.62C204.124 66.707 203.693 66.2993 203.693 65.8058V25.8331C203.693 25.3396 203.283 24.9105 202.765 24.9105H199.766C199.27 24.9105 198.839 25.3181 198.839 25.8331V69.5821C198.839 70.0756 199.249 70.5047 199.766 70.5047H207.597C208.093 70.5047 208.503 70.0971 208.503 69.5821V67.6081C208.503 67.1147 208.093 66.6855 207.597 66.6855L207.619 66.707Z" fill="white"/>
<path d="M219.721 66.707H216.723C216.226 66.707 215.795 66.2993 215.795 65.8058V25.8331C215.795 25.3396 215.385 24.9105 214.867 24.9105H211.869C211.373 24.9105 210.941 25.3181 210.941 25.8331V69.5821C210.941 70.0756 211.351 70.5047 211.869 70.5047H219.7C220.196 70.5047 220.606 70.0971 220.606 69.5821V67.6081C220.606 67.1147 220.196 66.6855 219.7 66.6855L219.721 66.707Z" fill="white"/>
<path d="M236.57 47.139C237.454 46.0233 237.972 44.6286 237.972 43.1053V31.4331C237.972 27.8285 235.038 24.9319 231.435 24.9319H224.381C223.885 24.9319 223.453 25.3396 223.453 25.8545V69.6036C223.453 70.0971 223.863 70.5262 224.381 70.5262H231.435C235.038 70.5262 237.972 67.6082 237.972 64.025V52.3528C237.972 50.8295 237.454 49.4348 236.57 48.3191C236.289 47.9543 236.289 47.5038 236.57 47.139ZM233.14 64.3683C233.14 65.6556 232.083 66.707 230.788 66.707H229.235C228.739 66.707 228.307 66.2993 228.307 65.8058V50.5505C228.307 50.057 228.717 49.6494 229.235 49.6494H230.788C232.083 49.6494 233.14 50.7007 233.14 51.9881V64.3683ZM233.14 43.47C233.14 44.7574 232.083 45.8087 230.788 45.8087H229.235C228.739 45.8087 228.307 45.4011 228.307 44.9076V29.6523C228.307 29.1588 228.717 28.7296 229.235 28.7296H230.788C232.083 28.7296 233.14 29.781 233.14 31.0684V43.47Z" fill="white"/>
<path d="M249.233 24.9319H242.2C241.704 24.9319 241.273 25.3396 241.273 25.8545V69.6036C241.273 70.097 241.683 70.5262 242.2 70.5262H245.199C245.695 70.5262 246.127 70.1185 246.127 69.6036V50.5291C246.127 50.0141 246.537 49.6065 247.054 49.6065H248.608C249.902 49.6065 250.959 50.6578 250.959 51.9452V69.5821C250.959 70.0756 251.369 70.5047 251.887 70.5047H254.885C255.382 70.5047 255.813 70.0971 255.813 69.5821V52.3099C255.813 50.5076 255.08 48.877 253.893 47.6969C255.08 46.5168 255.813 44.8861 255.813 43.0838V31.4331C255.813 27.8285 252.879 24.9105 249.255 24.9105L249.233 24.9319ZM250.959 43.47C250.959 44.7574 249.902 45.8087 248.608 45.8087H247.054C246.558 45.8087 246.127 45.4011 246.127 44.9076V29.6523C246.127 29.1588 246.537 28.7296 247.054 28.7296H248.608C249.902 28.7296 250.959 29.781 250.959 31.0684V43.47Z" fill="white"/>
<path d="M267.851 24.9319H260.02C259.524 24.9319 259.092 25.3396 259.092 25.8545V69.6036C259.092 70.097 259.502 70.5262 260.02 70.5262H267.851C268.347 70.5262 268.757 70.1185 268.757 69.6036V67.6296C268.757 67.1361 268.347 66.707 267.851 66.707H264.852C264.356 66.707 263.924 66.2993 263.924 65.8058V50.5291C263.924 50.0141 264.334 49.6065 264.852 49.6065H267.851C268.347 49.6065 268.757 49.1988 268.757 48.6839V46.7099C268.757 46.2164 268.347 45.7873 267.851 45.7873H264.852C264.356 45.7873 263.924 45.3796 263.924 44.8861V29.6308C263.924 29.1373 264.334 28.7082 264.852 28.7082H267.851C268.369 28.7082 268.757 28.3005 268.757 27.807V25.8331C268.757 25.3396 268.347 24.9105 267.851 24.9105V24.9319Z" fill="white"/>
<path d="M305.28 25.5327C305.388 25.2323 305.172 24.9105 304.849 24.9105H301.591C301.203 24.9105 300.857 25.1465 300.728 25.5112L295.551 39.6294V25.8331C295.551 25.3396 295.141 24.9105 294.623 24.9105H292.056C291.56 24.9105 291.128 25.3181 291.128 25.8331V69.5821C291.128 70.0756 291.538 70.5047 292.056 70.5047H294.623C295.119 70.5047 295.551 70.0971 295.551 69.5821V51.5804L300.814 69.8396C300.922 70.2258 301.289 70.5047 301.699 70.5047H304.827C305.129 70.5047 305.345 70.2258 305.258 69.9254L298.679 47.1175C298.29 45.7873 298.355 44.3926 298.83 43.0838L305.258 25.5327H305.28Z" fill="white"/>
<path d="M317.275 24.9319H309.444C308.947 24.9319 308.516 25.3396 308.516 25.8545V69.6036C308.516 70.097 308.926 70.5262 309.444 70.5262H317.275C317.771 70.5262 318.181 70.1185 318.181 69.6036V67.6296C318.181 67.1361 317.771 66.707 317.275 66.707H314.276C313.78 66.707 313.348 66.2993 313.348 65.8058V50.5291C313.348 50.0141 313.758 49.6065 314.276 49.6065H317.275C317.771 49.6065 318.181 49.1988 318.181 48.6839V46.7099C318.181 46.2164 317.771 45.7873 317.275 45.7873H314.276C313.78 45.7873 313.348 45.3796 313.348 44.8861V29.6308C313.348 29.1373 313.758 28.7082 314.276 28.7082H317.275C317.792 28.7082 318.181 28.3005 318.181 27.807V25.8331C318.181 25.3396 317.771 24.9105 317.275 24.9105V24.9319Z" fill="white"/>
<path d="M336 31.4546C336 27.8499 333.066 24.9319 329.442 24.9319H322.409C321.913 24.9319 321.481 25.3396 321.481 25.8545V69.6036C321.481 70.0971 321.891 70.5262 322.409 70.5262H325.408C325.904 70.5262 326.335 70.1185 326.335 69.6036V50.5291C326.335 50.0141 326.745 49.6065 327.263 49.6065H328.816C330.11 49.6065 331.168 50.6578 331.168 51.9452V69.5821C331.168 70.0756 331.577 70.5047 332.095 70.5047H335.094C335.59 70.5047 336.021 70.0971 336.021 69.5821V52.3099C336.021 50.5076 335.288 48.877 334.102 47.6969C335.288 46.5168 336.021 44.8861 336.021 43.0838V31.4331L336 31.4546ZM331.168 43.47C331.168 44.7574 330.11 45.8087 328.816 45.8087H327.263C326.767 45.8087 326.335 45.4011 326.335 44.9076V29.6523C326.335 29.1588 326.745 28.7296 327.263 28.7296H328.816C330.11 28.7296 331.168 29.781 331.168 31.0684V43.47Z" fill="white"/>
<path d="M189.584 24.9319H185.83C184.6 24.9319 183.587 25.8545 183.479 27.0775L179.746 69.5177C179.703 70.0541 180.113 70.5047 180.653 70.5047H183.22C183.694 70.5047 184.083 70.14 184.126 69.6679L184.881 61.0211L184.967 60.1414L185.334 56.0862L187.362 33.1711C187.362 33.1711 187.405 32.6132 187.707 32.6132C188.009 32.6132 188.052 33.1711 188.052 33.1711L190.08 56.1077L190.317 58.8755V59.1115L191.266 69.6679C191.31 70.14 191.698 70.5047 192.173 70.5047H194.74C195.279 70.5047 195.711 70.0541 195.646 69.5177L191.914 27.0775C191.806 25.8545 190.792 24.9319 189.562 24.9319H189.584Z" fill="white"/>
<path d="M281.895 24.9319H278.141C276.911 24.9319 275.897 25.8545 275.79 27.0775L272.057 69.5177C272.014 70.0541 272.424 70.5047 272.964 70.5047H275.531C276.005 70.5047 276.394 70.14 276.437 69.6679L276.933 64.0679L277.623 56.1077L279.651 33.1711C279.651 33.1711 279.694 32.6132 279.996 32.6132C280.298 32.6132 280.342 33.1711 280.342 33.1711L282.822 61.2142V61.343L283.556 69.6465C283.599 70.1185 283.987 70.4833 284.462 70.4833H287.029C287.569 70.4833 288 70.0327 287.935 69.4963L284.203 27.0561C284.095 25.8331 283.081 24.9105 281.852 24.9105L281.895 24.9319Z" fill="white"/>
</svg>
