<svg width="220" height="54" viewBox="0 0 220 54" fill="none" xmlns="http://www.w3.org/2000/svg">
<path d="M88.4547 17C88.1949 17 88 17.24 88 17.48V40.52C88 40.7943 88.1949 41 88.4547 41H89.9163C90.1762 41 90.3711 40.7943 90.3711 40.52V30.4743C90.3711 30.2343 90.5984 29.9943 90.8258 29.9943H91.9301C93.7165 29.9943 95.1782 28.4857 95.1782 26.5657V20.4286C95.1782 18.5429 93.7165 17 91.9301 17H88.4547ZM91.6053 28.0057H90.8258C90.5984 28.0057 90.3711 27.8 90.3711 27.5257V19.5029C90.3711 19.2286 90.5984 19.0229 90.8258 19.0229H91.6053C92.2549 19.0229 92.7746 19.5714 92.7746 20.2571V26.7714C92.7746 27.4571 92.2549 28.0057 91.6053 28.0057Z" fill="white"/>
<path d="M105.645 26.5657V20.4286C105.645 18.5429 104.184 17 102.397 17H98.922C98.6622 17 98.4673 17.24 98.4673 17.48V40.52C98.4673 40.7943 98.6622 41 98.922 41H100.384C100.643 41 100.838 40.7943 100.838 40.52V30.4743C100.838 30.2343 101.066 29.9943 101.293 29.9943H102.073C102.722 29.9943 103.242 30.5429 103.242 31.2286V40.52C103.242 40.7943 103.469 41 103.697 41H105.191C105.451 41 105.645 40.7943 105.645 40.52V31.4343C105.645 30.4743 105.288 29.6171 104.704 29C105.288 28.3829 105.645 27.5257 105.645 26.5657ZM101.293 28.0057C101.066 28.0057 100.838 27.8 100.838 27.5257V19.5029C100.838 19.2286 101.066 19.0229 101.293 19.0229H102.073C102.722 19.0229 103.242 19.5714 103.242 20.2571V26.7714C103.242 27.4571 102.722 28.0057 102.073 28.0057H101.293Z" fill="white"/>
<path d="M108.935 20.4286V37.5714C108.935 39.4914 110.364 41 112.183 41H112.865C114.651 41 116.113 39.4914 116.113 37.5714V20.4286C116.113 18.5429 114.651 17 112.865 17H112.183C110.364 17 108.935 18.5429 108.935 20.4286ZM112.54 39.0114H112.475C111.825 39.0114 111.306 38.4629 111.306 37.7771V20.2571C111.306 19.5714 111.825 19.0229 112.475 19.0229H112.54C113.19 19.0229 113.709 19.5714 113.709 20.2571V37.7771C113.709 38.4629 113.19 39.0114 112.54 39.0114Z" fill="white"/>
<path d="M124.177 17.48V37.7771C124.177 38.4629 123.657 39.0114 123.007 39.0114H122.942C122.325 39.0114 121.773 38.4629 121.773 37.7771V33.4914C121.773 33.2171 121.578 33.0114 121.318 33.0114H119.857C119.597 33.0114 119.402 33.2171 119.402 33.4914V37.5714C119.402 39.4914 120.831 41 122.65 41H123.332C125.118 41 126.58 39.4914 126.58 37.5714V17.48C126.58 17.24 126.385 17 126.125 17H124.631C124.404 17 124.177 17.24 124.177 17.48Z" fill="white"/>
<path d="M134.644 18.5429V17.48C134.644 17.24 134.449 17 134.189 17H130.324C130.064 17 129.869 17.24 129.869 17.48V40.52C129.869 40.7943 130.064 41 130.324 41H134.189C134.449 41 134.644 40.7943 134.644 40.52V39.4914C134.644 39.2171 134.449 39.0114 134.189 39.0114H132.695C132.468 39.0114 132.24 38.8057 132.24 38.5314V30.4743C132.24 30.2343 132.468 29.9943 132.695 29.9943H134.189C134.449 29.9943 134.644 29.7886 134.644 29.5143V28.4857C134.644 28.2114 134.449 28.0057 134.189 28.0057H132.695C132.468 28.0057 132.24 27.8 132.24 27.5257V19.5029C132.24 19.2286 132.468 19.0229 132.695 19.0229H134.189C134.449 19.0229 134.644 18.7829 134.644 18.5429Z" fill="white"/>
<path d="M145.104 24.5429V20.4286C145.104 18.5429 143.642 17 141.856 17H141.141C139.355 17 137.926 18.5429 137.926 20.4286V37.6057C137.926 39.4914 139.355 41 141.141 41H141.856C143.642 41 145.104 39.4914 145.104 37.6057V33.4914C145.104 33.2171 144.909 33.0114 144.649 33.0114H143.155C142.928 33.0114 142.701 33.2171 142.701 33.4914V37.7771C142.701 38.4629 142.181 39.0114 141.531 39.0114H141.466C140.849 39.0114 140.297 38.4629 140.297 37.7771V20.2571C140.297 19.5714 140.849 19.0229 141.466 19.0229H141.531C142.181 19.0229 142.701 19.5714 142.701 20.2571V24.5429C142.701 24.7829 142.928 25.0229 143.155 25.0229H144.649C144.909 25.0229 145.104 24.7829 145.104 24.5429Z" fill="white"/>
<path d="M147.664 17.48V18.5429C147.664 18.7829 147.859 19.0229 148.118 19.0229H149.58C149.84 19.0229 150.035 19.2286 150.035 19.5029V40.52C150.035 40.7943 150.262 41 150.489 41H151.984C152.243 41 152.438 40.7943 152.438 40.52V19.5029C152.438 19.2286 152.666 19.0229 152.893 19.0229H154.387C154.647 19.0229 154.842 18.7829 154.842 18.5429V17.48C154.842 17.24 154.647 17 154.387 17H148.086C147.859 17 147.664 17.24 147.664 17.48Z" fill="white"/>
<path d="M163.788 17C163.528 17 163.333 17.24 163.333 17.48V40.52C163.333 40.7943 163.528 41 163.788 41H165.249C165.509 41 165.704 40.7943 165.704 40.52V30.4743C165.704 30.2343 165.931 29.9943 166.159 29.9943H167.263C169.049 29.9943 170.511 28.4857 170.511 26.5657V20.4286C170.511 18.5429 169.049 17 167.263 17H163.788ZM166.938 28.0057H166.159C165.931 28.0057 165.704 27.8 165.704 27.5257V19.5029C165.704 19.2286 165.931 19.0229 166.159 19.0229H166.938C167.588 19.0229 168.108 19.5714 168.108 20.2571V26.7714C168.108 27.4571 167.588 28.0057 166.938 28.0057Z" fill="white"/>
<path d="M173.8 20.4286V37.5714C173.8 39.4914 175.229 41 177.048 41H177.73C179.517 41 180.978 39.4914 180.978 37.5714V20.4286C180.978 18.5429 179.517 17 177.73 17H177.048C175.229 17 173.8 18.5429 173.8 20.4286ZM177.406 39.0114H177.341C176.691 39.0114 176.171 38.4629 176.171 37.7771V20.2571C176.171 19.5714 176.691 19.0229 177.341 19.0229H177.406C178.055 19.0229 178.575 19.5714 178.575 20.2571V37.7771C178.575 38.4629 178.055 39.0114 177.406 39.0114Z" fill="white"/>
<path d="M191.446 26.5657V20.4286C191.446 18.5429 189.984 17 188.198 17H184.722C184.462 17 184.268 17.24 184.268 17.48V40.52C184.268 40.7943 184.462 41 184.722 41H186.184C186.444 41 186.639 40.7943 186.639 40.52V30.4743C186.639 30.2343 186.866 29.9943 187.093 29.9943H187.873C188.522 29.9943 189.042 30.5429 189.042 31.2286V40.52C189.042 40.7943 189.27 41 189.497 41H190.991C191.251 41 191.446 40.7943 191.446 40.52V31.4343C191.446 30.4743 191.088 29.6171 190.504 29C191.088 28.3829 191.446 27.5257 191.446 26.5657ZM187.093 28.0057C186.866 28.0057 186.639 27.8 186.639 27.5257V19.5029C186.639 19.2286 186.866 19.0229 187.093 19.0229H187.873C188.522 19.0229 189.042 19.5714 189.042 20.2571V26.7714C189.042 27.4571 188.522 28.0057 187.873 28.0057H187.093Z" fill="white"/>
<path d="M194.735 17.48V18.5429C194.735 18.7829 194.93 19.0229 195.19 19.0229H196.651C196.911 19.0229 197.106 19.2286 197.106 19.5029V40.52C197.106 40.7943 197.333 41 197.561 41H199.055C199.315 41 199.509 40.7943 199.509 40.52V19.5029C199.509 19.2286 199.737 19.0229 199.964 19.0229H201.458C201.718 19.0229 201.913 18.7829 201.913 18.5429V17.48C201.913 17.24 201.718 17 201.458 17H195.157C194.93 17 194.735 17.24 194.735 17.48Z" fill="white"/>
<path d="M210.165 18.1314C210.1 17.5143 209.58 17 208.996 17H207.112C206.527 17 206.008 17.5143 205.975 18.1314L204.124 40.4857C204.091 40.76 204.286 41 204.578 41H205.845C206.073 41 206.267 40.8286 206.3 40.5886L206.885 33.4229C206.917 33.1829 207.112 33.0114 207.339 33.0114H208.768C209.028 33.0114 209.223 33.1829 209.223 33.4229L209.84 40.5886C209.84 40.8286 210.035 41 210.295 41H211.562C211.822 41 212.049 40.76 212.016 40.4857L210.165 18.1314ZM208.541 30.9886H207.599C207.307 30.9886 207.112 30.7486 207.144 30.4743L207.891 21.3543C207.891 21.3543 207.924 21.08 208.054 21.08C208.216 21.08 208.216 21.3543 208.216 21.3543L208.996 30.4743C208.996 30.7486 208.801 30.9886 208.541 30.9886Z" fill="white"/>
<path d="M217.596 38.5314V17.48C217.596 17.24 217.402 17 217.142 17H215.68C215.42 17 215.225 17.24 215.225 17.48V40.52C215.225 40.7943 215.42 41 215.68 41H219.545C219.805 41 220 40.7943 220 40.52V39.4914C220 39.2171 219.805 39.0114 219.545 39.0114H218.051C217.824 39.0114 217.596 38.8057 217.596 38.5314Z" fill="white"/>
<path d="M30.138 5.38042C31.3708 7.48636 32.6035 9.57945 33.8363 11.6854C34.5297 12.8796 35.2103 14.0867 35.9037 15.2809C36.2889 15.9486 36.687 16.5907 37.0722 17.2584C37.1493 17.3997 37.2648 17.5409 37.1236 17.7849C36.1477 19.4029 35.2231 21.0465 34.2215 22.7673C33.7207 21.9197 33.2584 21.1364 32.7961 20.3531C30.9342 17.1685 29.0722 13.9839 27.2103 10.7994C25.4896 7.84591 23.7817 4.89246 22.0738 1.939C21.7014 1.30979 21.2777 0.70626 21.0337 0H54.382C53.5987 1.38684 52.8025 2.77368 52.0192 4.16051C51.8266 4.49438 51.6083 4.82825 51.4029 5.14928C44.52 5.14928 37.6372 5.14928 30.7544 5.14928C30.5746 5.14928 30.4077 5.14928 30.2279 5.16212C30.0867 5.17496 30.0867 5.26485 30.1509 5.36758L30.138 5.38042Z" fill="#0095CF"/>
<path d="M16.642 18.1059C17.4767 19.7111 18.4526 21.2263 19.313 22.8058C20.0706 24.2055 20.9567 25.5281 21.7143 26.9278C22.6774 28.6998 23.7432 30.4077 24.7063 32.1669C25.4767 33.5795 26.3628 34.9406 27.1461 36.3531C28.1091 38.0995 29.2392 39.756 30.0867 41.5666C30.1124 41.6308 30.1894 41.6822 30.2279 41.7464C30.4462 42.1188 30.6132 42.183 30.8571 41.7335C31.5249 40.5265 32.244 39.3451 32.9374 38.1637C34.581 35.3644 36.2247 32.565 37.8684 29.7657C40.0642 26.0161 42.26 22.2665 44.4687 18.5169C44.5586 18.3628 44.6613 18.2344 44.764 18.0803C46.626 18.0803 48.5008 18.0803 50.3628 18.0674C50.4912 18.0674 50.6453 18.0417 50.7223 18.1958C50.0674 19.3644 49.4125 20.5329 48.7448 21.6886C47.4607 23.9101 46.1766 26.1445 44.8796 28.366C42.9406 31.679 41.0144 34.992 39.0883 38.3178C37.3932 41.2327 35.7111 44.1605 34.0546 47.0883C32.9759 48.9888 31.8587 50.8764 30.703 52.8539C30.0481 51.7496 29.4446 50.6966 28.8282 49.6565C26.6966 45.9968 24.5778 42.3499 22.4591 38.6774C20.4045 35.1332 18.3756 31.5762 16.321 28.0321C14.4976 24.8732 12.6485 21.7271 10.8122 18.5811C10.748 18.4655 10.7223 18.3242 10.6838 18.2087C10.748 18.0803 10.8636 18.0803 10.9791 18.0803C12.8668 18.0803 14.7544 18.0931 16.642 18.1059Z" fill="#0095CF"/>
<path d="M34.4783 11.1589C33.7079 10.2729 33.297 9.16853 32.6677 8.19261C32.2568 7.5634 31.8716 6.92134 31.6019 6.21508C31.7945 5.99678 32.0385 6.09951 32.2568 6.09951C45.2263 6.09951 58.183 6.09951 71.1525 6.09951C71.3451 6.09951 71.5377 6.11235 71.7432 6.12519C71.4221 7.08828 70.7929 7.88442 70.2921 8.75762C68.2632 12.2889 66.1701 15.7945 64.1156 19.3002C61.8299 23.2038 59.5441 27.0947 57.2584 30.9984C55.4607 34.0546 53.6758 37.1236 51.8909 40.1926C51.7881 40.3595 51.6726 40.5136 51.5185 40.7319C50.9406 39.7303 50.3884 38.7673 49.8363 37.8042C49.5795 37.3547 49.3868 36.8539 49.0787 36.4559C48.6164 35.8652 48.6677 35.3644 49.053 34.7737C49.7592 33.6565 50.427 32.5136 51.0947 31.3708C51.8652 30.0353 52.6613 28.7127 53.4189 27.3644C54.061 26.2087 54.7544 25.0786 55.3836 23.9229C55.9615 22.8571 56.6035 21.8299 57.2071 20.7897C57.8363 19.6982 58.4912 18.6067 59.1332 17.5152C59.7753 16.4238 60.4045 15.3323 61.0466 14.2408C61.5859 13.329 62.1252 12.4045 62.6517 11.4799C62.947 10.9149 62.4205 11.1717 62.2921 11.1717C56.6035 11.1589 50.9149 11.1717 45.2263 11.1589C41.6437 11.1589 38.0738 11.1589 34.4912 11.1589H34.4783Z" fill="#0095CF"/>
<path d="M23.0498 17.2584H9.24559C16.1926 29.2648 23.114 41.1942 30.0225 53.1236C29.8555 53.3162 29.6629 53.252 29.496 53.252C27.7753 53.252 26.0546 53.252 24.3339 53.252C23.9743 53.252 23.7817 53.1236 23.6019 52.8154C17.4767 42.2215 11.3258 31.6404 5.1878 21.0465C3.51846 18.183 1.84912 15.2937 0.179775 12.4173C0.11557 12.3018 0.0642055 12.1862 0 12.0578C0.218299 11.9294 0.436597 11.9807 0.642055 11.9807C6.90851 11.9807 13.1621 11.9807 19.4286 11.9679C19.8909 11.9679 20.1091 12.122 20.3274 12.5072C21.1108 13.9069 21.9197 15.2809 22.7287 16.6549C22.8186 16.8218 22.9085 16.9888 23.0498 17.2584Z" fill="#007FA6"/>
<path d="M72.5008 6.38202C73.5024 8.07704 74.4398 9.64366 75.3772 11.2103C75.5313 11.4542 75.5056 11.6597 75.3643 11.9037C73.7335 14.6645 72.1156 17.4382 70.5104 20.2119C69.3162 22.2664 68.1477 24.321 66.9663 26.3756C64.9759 29.8042 62.9727 33.2327 60.9952 36.6613C59.3644 39.4735 57.7592 42.2986 56.1412 45.1108C54.7159 47.5891 53.2777 50.0546 51.8395 52.5201C51.7881 52.5971 51.7367 52.6742 51.634 52.8411C51.0562 51.8395 50.4912 50.9021 49.9518 49.9647C48 46.6132 46.0481 43.2488 44.0963 39.8973C43.313 38.5361 42.5425 37.1621 41.7464 35.801C41.6308 35.5955 41.618 35.4286 41.7464 35.2103C42.6324 33.6822 43.5184 32.1541 44.3916 30.626C44.5586 30.3307 44.6741 30.382 44.8282 30.6388C45.4189 31.6533 46.0225 32.6549 46.6003 33.6693C47.2937 34.8764 47.9871 36.0963 48.6806 37.3162C49.4253 38.6388 50.1573 39.9743 50.9149 41.2841C51.0818 41.5795 51.313 41.8363 51.4671 42.2857C58.504 30.2793 65.4896 18.3756 72.5136 6.38202H72.5008Z" fill="#0095CF"/>
<path d="M20.2761 0.282501C20.8154 1.19422 21.3162 2.04173 21.8042 2.90208C25.6694 9.56661 29.5217 16.2183 33.3868 22.87C33.6693 23.3579 33.7079 23.7175 33.3868 24.2311C32.4494 25.7335 31.5891 27.2873 30.6517 28.9053C30.0995 27.9551 29.573 27.069 29.0594 26.183C25.13 19.4286 21.2135 12.6742 17.2841 5.91974C17.1814 5.75281 17.0915 5.6244 17.2199 5.4061C18.2215 3.73675 19.2103 2.05457 20.2504 0.295342L20.2761 0.282501Z" fill="#007FA6"/>
<path d="M61.4189 12.0193C60.4302 13.6886 59.4799 15.2937 58.5554 16.9246C58.3628 17.2584 58.1188 17.2456 57.8234 17.2456C53.5217 17.2456 49.2071 17.2456 44.9053 17.2456C42.7352 17.2456 40.565 17.2456 38.3949 17.2456C38.138 17.2456 37.9069 17.2713 37.74 16.9888C36.8026 15.3451 35.8523 13.7143 34.8764 12.0193H61.4189Z" fill="#007FA6"/>
<path d="M43.7881 18.1059C43.2873 19.236 42.5811 20.2633 41.9647 21.3419C40.0385 24.6677 38.0867 27.9679 36.1348 31.2937C34.2985 34.427 32.4623 37.5474 30.6003 40.7319C29.9839 39.9615 29.6629 39.0754 29.1621 38.2921C28.687 37.5602 28.3274 36.764 27.8908 36.0321C27.7111 35.7368 27.7239 35.4799 27.8652 35.2231C28.9567 33.3612 30.061 31.512 31.1396 29.6501C32.0128 28.1605 32.8603 26.671 33.7207 25.1814C34.5811 23.6918 35.4414 22.2151 36.3018 20.7255C36.8154 19.8395 37.3162 18.9663 37.8298 18.0803C39.8074 18.0803 41.7977 18.0289 43.7753 18.1059H43.7881Z" fill="#0095CF"/>
<path d="M41.1685 36.2376C42.2344 38.0738 43.2488 39.8202 44.2633 41.5666C46.3692 45.2006 48.4751 48.8475 50.5939 52.4815C50.6581 52.5971 50.7223 52.7255 50.7994 52.8411C51.0433 53.1878 50.8893 53.252 50.5425 53.252C48.7576 53.252 46.9856 53.2392 45.2007 53.252C44.8026 53.252 44.6613 53.0466 44.5072 52.764C42.4783 49.2584 40.4623 45.74 38.3949 42.26C38.0995 41.7592 38.1509 41.4382 38.4206 40.9759C39.3451 39.435 40.2311 37.8812 41.1814 36.2376H41.1685Z" fill="#007FA6"/>
<path d="M0.0385132 11.1332C0.436587 10.3884 0.834661 9.64367 1.23273 8.89888C1.63081 8.16694 2.08025 7.46068 2.45264 6.72874C2.56821 6.51044 2.77367 6.35635 2.85071 6.11237C7.39646 6.11237 11.9422 6.11237 16.5008 6.11237C17.451 7.76887 18.4141 9.41253 19.3644 11.069C19.3644 11.0947 19.3644 11.1204 19.3644 11.1589H19.3515C12.9695 11.1589 6.58747 11.1718 0.205447 11.1718C0.154083 11.1718 0.0898776 11.1589 0.0385132 11.1461V11.1332Z" fill="#0095CF"/>
<path d="M52.5971 4.94382C53.3676 3.5955 54.1381 2.24719 54.9085 0.898876C55.1268 0.513643 55.3194 0.654895 55.4735 0.898876C56.2825 2.27287 57.0915 3.64687 57.9005 5.03371C57.8363 5.12359 57.7464 5.14928 57.6437 5.14928C55.9358 5.14928 54.2279 5.13644 52.5201 5.12359C52.5201 5.09791 52.5201 5.05939 52.5329 5.04655L52.5971 4.94382Z" fill="#0095CF"/>
<path d="M71.7304 6.12519C71.5377 6.12519 71.3451 6.09951 71.1397 6.09951C58.1702 6.09951 45.2135 6.09951 32.244 6.09951C32.0257 6.09951 31.7689 5.99678 31.5891 6.21508C31.4735 6.15088 31.4478 6.04815 31.5891 6.00962C31.756 5.9711 31.9358 5.98394 32.1156 5.98394C45.1621 5.98394 58.1958 5.98394 71.2424 5.98394C71.4093 5.98394 71.5891 6.00962 71.756 6.02247C71.756 6.02247 71.7817 6.04815 71.7689 6.06099C71.7689 6.07383 71.7432 6.09951 71.7304 6.11235V6.12519Z" fill="#007FA6"/>
<path d="M34.4783 11.1589C38.061 11.1589 41.6308 11.1589 45.2135 11.1589C50.9021 11.1589 56.5907 11.1589 62.2793 11.1717C62.3949 11.1717 62.9342 10.9149 62.6388 11.4799C62.6003 11.0819 62.2921 11.236 62.0995 11.236C59.9679 11.236 57.8363 11.236 55.7047 11.236C48.8347 11.236 41.9647 11.236 35.0947 11.236C34.8892 11.236 34.6709 11.3258 34.4783 11.1589Z" fill="#007FA6"/>
<path d="M30.138 5.38042C30.0867 5.27769 30.0867 5.18781 30.2151 5.17497C30.3949 5.16212 30.5618 5.16212 30.7416 5.16212C37.6244 5.16212 44.5072 5.16212 51.3901 5.16212C51.2103 5.39326 50.9535 5.27769 50.7352 5.27769C44.0963 5.27769 37.4446 5.27769 30.8058 5.27769C30.5875 5.27769 30.3307 5.17497 30.138 5.38042Z" fill="#007FA6"/>
<path d="M0.0385132 11.1332C0.0385132 11.1332 0.154083 11.1589 0.205447 11.1589C6.58747 11.1589 12.9695 11.1589 19.3515 11.1589C19.1846 11.3002 18.9791 11.236 18.7865 11.236C12.7127 11.236 6.63883 11.236 0.577839 11.236C0.398064 11.236 0.192606 11.3387 0.0385132 11.1461V11.1332Z" fill="#007FA6"/>
<path d="M16.5008 6.11236C11.955 6.11236 7.4093 6.11236 2.85071 6.11236C2.9406 5.91975 3.12037 5.99679 3.26162 5.99679C7.53771 5.99679 11.8138 5.99679 16.0899 5.99679C16.2311 5.99679 16.4109 5.90691 16.5008 6.09952V6.11236Z" fill="#007FA6"/>
<path d="M50.7223 18.1958C50.6324 18.0546 50.4912 18.0674 50.3628 18.0674C48.5008 18.0674 46.626 18.0674 44.764 18.0803C44.8282 17.8876 44.9823 17.9518 45.0979 17.9518C46.8828 17.9518 48.6677 17.9518 50.4526 17.9518C50.5297 17.9518 50.9406 17.7464 50.7223 18.1701V18.1958Z" fill="#007FA6"/>
<path d="M16.642 18.1059C14.7544 18.1059 12.8668 18.0931 10.9791 18.0803C10.8636 18.0803 10.748 18.0803 10.6838 18.2087C10.4655 17.7978 10.8507 17.9775 10.9406 17.9775C11.9679 17.9647 12.9952 17.9775 14.0225 17.9775C14.7159 17.9775 15.4221 17.9775 16.1156 17.9775C16.2825 17.9775 16.5136 17.862 16.6292 18.1059H16.642Z" fill="#007FA6"/>
<path d="M43.7881 18.1059C41.8106 18.016 39.8202 18.0803 37.8427 18.0803C37.8684 17.9904 37.9454 17.9775 38.0225 17.9775C39.9101 17.9775 41.7849 17.9775 43.6726 17.9775C43.7239 17.9775 43.7753 18.0032 43.8267 18.0289L43.7881 18.1188V18.1059Z" fill="#007FA6"/>
<path d="M52.5201 5.12359C54.2279 5.12359 55.9358 5.13644 57.6437 5.14928C57.7464 5.14928 57.8363 5.12359 57.9005 5.03371C58.0417 5.14928 58.0032 5.25201 57.8491 5.25201C56.0899 5.25201 54.3178 5.23916 52.5586 5.22632C52.5586 5.22632 52.5329 5.16212 52.5201 5.12359Z" fill="#007FA6"/>
<path d="M19.3772 11.1461C19.3772 11.1461 19.3772 11.0947 19.3772 11.0562L19.4542 11.1075L19.3772 11.1461Z" fill="#007FA6"/>
<path d="M52.5971 4.94382L52.5329 5.04655L52.5971 4.94382Z" fill="#007FA6"/>
</svg>
