<svg width="25" height="24" viewBox="0 0 25 24" fill="none" xmlns="http://www.w3.org/2000/svg">
<g clip-path="url(#clip0_216_269)">
<path d="M24.1 12.73H8.39C7.94 12.73 7.58 12.37 7.58 11.92C7.58 11.47 7.94 11.11 8.39 11.11H24.09C24.54 11.11 24.9 11.47 24.9 11.92C24.9 12.37 24.54 12.73 24.09 12.73H24.1Z" fill="#CE0000"/>
<path d="M12.73 17.06C12.52 17.06 12.31 16.98 12.16 16.82L7.83 12.49C7.51 12.17 7.51 11.66 7.83 11.34L12.16 7.01002C12.48 6.69002 12.99 6.69002 13.31 7.01002C13.63 7.33002 13.63 7.84002 13.31 8.16002L9.55 11.92L13.31 15.68C13.63 16 13.63 16.51 13.31 16.83C13.15 16.99 12.94 17.07 12.73 17.07V17.06Z" fill="#CE0000"/>
<path d="M11.91 23.83C5.34 23.83 0 18.48 0 11.91C0 5.34 5.34 0 11.91 0C16.84 0 21.19 2.97 23 7.56C23.16 7.98 22.96 8.45 22.54 8.61C22.12 8.77 21.65 8.57 21.49 8.15C19.93 4.19 16.17 1.62 11.91 1.62C6.24 1.62 1.62 6.24 1.62 11.91C1.62 17.58 6.24 22.2 11.91 22.2C16.17 22.2 19.93 19.64 21.49 15.68C21.65 15.26 22.13 15.06 22.54 15.22C22.96 15.38 23.16 15.86 23 16.27C21.19 20.86 16.84 23.82 11.91 23.82V23.83Z" fill="#CE0000"/>
</g>
<defs>
<clipPath id="clip0_216_269">
<rect width="24.91" height="23.83" fill="white"/>
</clipPath>
</defs>
</svg>
