<svg width="24" height="24" viewBox="0 0 24 24" fill="none" xmlns="http://www.w3.org/2000/svg">
<g clip-path="url(#clip0_216_185)">
<path d="M22 1.20795e-05H19.828C19.4339 -0.0011104 19.0435 0.0760072 18.6794 0.226895C18.3153 0.377782 17.9848 0.599437 17.707 0.879012L9.346 9.23901C7.74527 8.826 6.05314 8.95073 4.53027 9.59399C3.0074 10.2373 1.73825 11.3634 0.918335 12.7989C0.0984165 14.2344 -0.226796 15.8996 -0.00720926 17.5381C0.212378 19.1766 0.964583 20.6975 2.13354 21.8665C3.3025 23.0354 4.82337 23.7876 6.46188 24.0072C8.10038 24.2268 9.76564 23.9016 11.2011 23.0817C12.6366 22.2618 13.7628 20.9926 14.406 19.4697C15.0493 17.9469 15.174 16.2547 14.761 14.654L16 13.415V11H19V8.00001H21.414L23.121 6.29301C23.4005 6.01494 23.622 5.68423 23.7729 5.32C23.9238 4.95578 24.001 4.56525 24 4.17101V2.00001C24 1.46958 23.7893 0.960871 23.4142 0.585799C23.0391 0.210726 22.5304 1.20795e-05 22 1.20795e-05ZM22 4.17101C22.0001 4.30249 21.9743 4.4327 21.924 4.55419C21.8737 4.67568 21.8 4.78606 21.707 4.87901L20.586 6.00001H17V9.00001H14V12.585L12.455 14.13C12.8068 14.871 12.9928 15.6798 13 16.5C13 17.5878 12.6774 18.6512 12.0731 19.5556C11.4687 20.4601 10.6098 21.1651 9.60476 21.5813C8.59977 21.9976 7.4939 22.1066 6.427 21.8943C5.36011 21.6821 4.3801 21.1583 3.61091 20.3891C2.84172 19.6199 2.3179 18.6399 2.10568 17.573C1.89346 16.5061 2.00238 15.4002 2.41866 14.3953C2.83494 13.3903 3.53989 12.5313 4.44436 11.9269C5.34883 11.3226 6.4122 11 7.5 11C8.32585 10.946 9.14943 11.1351 9.869 11.544L19.121 2.29301C19.309 2.10629 19.563 2.00105 19.828 2.00001H22V4.17101ZM5 18C5 18.1978 5.05865 18.3911 5.16853 18.5556C5.27841 18.72 5.43459 18.8482 5.61732 18.9239C5.80004 18.9996 6.00111 19.0194 6.19509 18.9808C6.38907 18.9422 6.56725 18.847 6.70711 18.7071C6.84696 18.5673 6.9422 18.3891 6.98078 18.1951C7.01937 18.0011 6.99957 17.8001 6.92388 17.6173C6.84819 17.4346 6.72002 17.2784 6.55557 17.1685C6.39112 17.0587 6.19778 17 6 17C5.73478 17 5.48043 17.1054 5.29289 17.2929C5.10536 17.4804 5 17.7348 5 18Z" fill="white" fill-opacity="0.5"/>
</g>
<defs>
<clipPath id="clip0_216_185">
<rect width="24" height="24" fill="white"/>
</clipPath>
</defs>
</svg>
