<svg width="30" height="35" viewBox="0 0 30 35" fill="none" xmlns="http://www.w3.org/2000/svg">
<path d="M8.25046 22.5747H7.52612V24.0256H8.25046C8.65069 24.0256 8.97479 23.7015 8.97479 23.3012C8.97479 22.901 8.65069 22.5747 8.25046 22.5747Z" fill="#FD907E"/>
<path d="M15.8636 22.5747H14.776V26.9251H15.8636C16.0637 26.9251 16.2268 26.7619 16.2268 26.5618V22.938C16.2246 22.7378 16.0615 22.5747 15.8636 22.5747Z" fill="#FD907E"/>
<path d="M26.0129 0.0986328H4.98543C2.78632 0.0986328 0.998322 1.88663 0.998322 4.08574V30.9122C0.998322 33.1114 2.78632 34.8994 4.98543 34.8994H26.0129C28.212 34.8994 30 33.1114 30 30.9122V4.08574C30.0022 1.88663 28.212 0.0986328 26.0129 0.0986328ZM8.25037 26.2008H7.52604V28.0127C7.52604 28.6131 7.0388 29.1003 6.43845 29.1003C5.8381 29.1003 5.35086 28.6131 5.35086 28.0127V21.4872C5.35086 20.8868 5.8381 20.3996 6.43845 20.3996H8.25037C9.84913 20.3996 11.1499 21.7004 11.1499 23.2991C11.1499 24.8979 9.84913 26.2008 8.25037 26.2008ZM18.3998 26.5641C18.3998 27.9627 17.2621 29.1025 15.8613 29.1025H13.6862C13.0858 29.1025 12.5986 28.6153 12.5986 28.0149V21.4894C12.5986 20.889 13.0858 20.4018 13.6862 20.4018H15.8613C17.26 20.4018 18.3998 21.5394 18.3998 22.9402V26.5641ZM24.5642 24.0256C25.1646 24.0256 25.6518 24.5129 25.6518 25.1132C25.6518 25.7136 25.1646 26.2008 24.5642 26.2008H22.0258V28.0127C22.0258 28.6131 21.5386 29.1003 20.9382 29.1003C20.3379 29.1003 19.8506 28.6131 19.8506 28.0127V22.938C19.8506 21.5394 20.9882 20.3996 22.389 20.3996H24.5642C25.1646 20.3996 25.6518 20.8868 25.6518 21.4872C25.6518 22.0875 25.1646 22.5748 24.5642 22.5748H22.389C22.1889 22.5748 22.0258 22.7379 22.0258 22.938V24.0256H24.5642Z" fill="#FC573B"/>
</svg>
