<svg width="399" height="1080" viewBox="0 0 399 1080" fill="none" xmlns="http://www.w3.org/2000/svg">
<path d="M0.70459 48.2955C125.821 182.352 194.48 356.102 194.48 540.396C194.48 724.691 125.821 898.44 0.704617 1032.5L145 1176.79C482.855 820.19 482.855 260.638 145 -96L0.70459 48.2955Z" fill="#00AFF3"/>
<path d="M330.055 336.012C332.262 345.719 326.162 355.372 316.455 357.579L285.037 364.702C275.33 366.909 265.677 360.809 263.47 351.102L262.143 345.181C261.838 343.835 260.474 342.974 259.128 343.279L207.669 354.941C206.323 355.246 204.96 354.385 204.655 353.04L202.842 344.983C202.537 343.638 203.399 342.274 204.744 341.969L322.77 315.199C324.116 314.894 325.48 315.755 325.785 317.101L330.073 335.994L330.055 336.012ZM281.108 351.945L314.517 344.373C317.998 343.584 320.205 340.121 319.415 336.604L318.464 332.424C318.159 331.078 316.795 330.217 315.45 330.522L274.308 339.834C272.962 340.139 272.101 341.502 272.406 342.848L273.357 347.029C274.146 350.51 277.609 352.717 281.126 351.927L281.108 351.945Z" fill="#1B2634"/>
<path d="M226.329 408.625L227.657 416.771C227.89 418.153 226.957 419.445 225.576 419.678L220.175 420.557C218.793 420.791 217.501 419.858 217.268 418.476L213.805 397.178C213.572 395.797 214.505 394.505 215.887 394.272L335.384 374.822C336.748 374.606 338.057 375.522 338.291 376.903L339.618 385.049C339.834 386.413 338.919 387.722 337.537 387.956L228.428 405.701C227.047 405.934 226.114 407.226 226.347 408.608L226.329 408.625Z" fill="#1B2634"/>
<path d="M226.688 477.597C225.235 477.866 223.871 476.825 223.728 475.354L223.028 468.302C222.902 466.993 223.799 465.808 225.073 465.575L262.089 458.667C263.363 458.434 264.26 457.25 264.134 455.94L263.345 447.974C263.219 446.664 262.125 445.677 260.815 445.695L223.153 446.072C221.844 446.09 220.749 445.103 220.623 443.793L219.942 436.759C219.798 435.288 220.946 433.996 222.418 433.996L340.318 432.794C343.691 432.758 346.526 435.306 346.849 438.643L347.872 448.924C348.195 452.262 345.916 455.33 342.597 455.922L226.706 477.579L226.688 477.597ZM277.448 455.796L324.708 446.969C324.708 446.969 326.215 446.682 326.144 445.856C326.072 445.031 324.529 445.067 324.529 445.067L276.461 445.551C274.971 445.569 273.841 446.843 273.985 448.314L274.487 453.554C274.631 455.025 275.994 456.066 277.448 455.796Z" fill="#1B2634"/>
<path d="M351.568 519.941L351.73 526.418C351.766 527.818 350.653 528.966 349.254 529.002L228.249 531.98C226.85 532.016 225.701 530.904 225.665 529.504L225.45 520.856C225.414 519.636 226.257 518.577 227.442 518.326L309.69 500.778C309.87 500.743 309.834 500.491 309.654 500.491L227.531 502.519C226.132 502.555 224.984 501.442 224.948 500.043L224.786 493.566C224.75 492.166 225.863 491.018 227.244 490.964L348.249 487.985C349.648 487.95 350.797 489.062 350.832 490.461L351.03 498.697C351.066 499.917 350.222 500.976 349.038 501.227L264.511 519.259C264.332 519.295 264.367 519.546 264.547 519.546L348.949 517.465C350.348 517.429 351.496 518.542 351.532 519.941H351.568Z" fill="#1B2634"/>
<path d="M350.061 582.955L349.756 589.433C349.684 590.832 348.5 591.909 347.101 591.837L226.186 586.221C224.786 586.149 223.71 584.965 223.764 583.583L224.158 574.935C224.212 573.733 225.127 572.71 226.329 572.549L309.601 560.868C309.78 560.832 309.762 560.599 309.601 560.581L227.531 556.777C226.132 556.705 225.055 555.521 225.127 554.122L225.432 547.644C225.504 546.245 226.688 545.168 228.088 545.24L349.002 550.856C350.402 550.928 351.479 552.112 351.407 553.512L351.012 561.729C350.958 562.931 350.043 563.954 348.841 564.116L263.255 576.101C263.076 576.137 263.112 576.388 263.255 576.388L347.603 580.318C349.002 580.39 350.079 581.574 350.007 582.973L350.061 582.955Z" fill="#1B2634"/>
<path d="M347.549 614.714L346.724 622.931C346.598 624.313 345.342 625.318 343.96 625.192L223.494 613.135C222.113 613.009 221.108 611.753 221.233 610.371L222.059 602.154C222.184 600.772 223.422 599.749 224.822 599.893L345.288 611.95C346.67 612.076 347.693 613.314 347.549 614.714Z" fill="#1B2634"/>
<path d="M339.349 677.387L338.362 683.792C338.147 685.156 336.855 686.125 335.492 685.909L215.851 667.429C214.487 667.213 213.518 665.922 213.734 664.558L215.043 655.999C215.241 654.797 216.245 653.9 217.466 653.864L301.509 651.137C301.688 651.137 301.706 650.868 301.508 650.85L220.318 638.308C218.955 638.093 217.986 636.801 218.201 635.437L219.188 629.032C219.403 627.668 220.695 626.699 222.059 626.914L341.7 645.395C343.063 645.611 344.032 646.902 343.817 648.266L342.561 656.412C342.364 657.614 341.359 658.511 340.139 658.547L253.763 661.346C253.584 661.346 253.566 661.615 253.763 661.633L337.214 674.534C338.578 674.749 339.547 676.041 339.331 677.405L339.349 677.387Z" fill="#1B2634"/>
<path d="M284.553 735.018L286.401 726.962C286.706 725.616 288.07 724.755 289.415 725.06L311.359 730.066C314.858 730.874 318.339 728.685 319.128 725.168L319.2 724.845C320.007 721.346 317.818 717.865 314.302 717.076L224.517 696.621C221.018 695.814 217.538 698.003 216.748 701.52L216.676 701.843C215.869 705.341 218.058 708.822 221.575 709.612L243.518 714.618C244.864 714.923 246.228 714.061 246.533 712.716L246.892 711.137C247.197 709.791 248.56 708.93 249.906 709.235L255.253 710.455C256.598 710.76 257.46 712.124 257.155 713.469L253.835 728.021C253.53 729.367 252.167 730.228 250.821 729.923L219.619 722.799C209.912 720.593 203.829 710.922 206.036 701.215L206.898 697.447C209.105 687.74 218.776 681.657 228.482 683.864L316.275 703.87C325.982 706.077 332.065 715.748 329.858 725.455L328.997 729.223C326.79 738.93 317.119 745.012 307.412 742.805L286.455 738.033C285.109 737.728 284.248 736.364 284.553 735.018Z" fill="#1B2634"/>
</svg>
