<svg width="389" height="389" viewBox="0 0 389 389" fill="none" xmlns="http://www.w3.org/2000/svg">
<path d="M0 88.1948C79.2046 90.9271 153.286 123.043 209.607 179.364C265.929 235.686 298.044 309.767 300.777 388.972H388.972C383.242 176.742 212.24 5.7401 0 0V88.1948Z" fill="#0095CF"/>
<path d="M188.579 75.4713C192.22 77.7633 193.305 82.5777 191.013 86.2186L183.589 97.9968C181.297 101.638 176.483 102.723 172.842 100.431L170.626 99.0277C170.122 98.7096 169.442 98.8632 169.124 99.3676L156.962 118.658C156.644 119.162 155.964 119.316 155.459 118.998L152.444 117.09C151.939 116.772 151.786 116.092 152.104 115.587L179.992 71.3369C180.31 70.8324 180.99 70.6789 181.494 70.9969L188.579 75.4603V75.4713ZM178.489 95.299L186.385 82.7751C187.208 81.4701 186.824 79.7373 185.508 78.9039L183.94 77.9169C183.435 77.5988 182.755 77.7524 182.437 78.2568L172.71 93.6759C172.392 94.1804 172.545 94.8603 173.05 95.1784L174.618 96.1654C175.923 96.9879 177.656 96.604 178.489 95.288V95.299Z" fill="#1B2634"/>
<path d="M179.071 129.361L181.966 131.445C182.459 131.796 182.569 132.476 182.218 132.969L180.836 134.889C180.485 135.382 179.805 135.492 179.312 135.141L171.745 129.69C171.251 129.34 171.142 128.66 171.493 128.166L202.068 85.7032C202.419 85.2207 203.099 85.1 203.592 85.451L206.487 87.5346C206.97 87.8856 207.09 88.5655 206.74 89.059L178.818 127.826C178.468 128.32 178.577 129 179.071 129.35V129.361Z" fill="#1B2634"/>
<path d="M200.258 150.33C199.896 150.856 199.162 150.955 198.668 150.549L196.299 148.608C195.861 148.246 195.773 147.61 196.091 147.149L205.292 133.726C205.61 133.266 205.522 132.63 205.083 132.268L202.408 130.074C201.969 129.712 201.333 129.745 200.938 130.151L189.544 141.776C189.149 142.181 188.513 142.214 188.074 141.852L185.716 139.911C185.223 139.506 185.179 138.76 185.629 138.31L221.292 101.912C222.312 100.87 223.957 100.782 225.076 101.704L228.53 104.533C229.649 105.454 229.89 107.088 229.057 108.284L200.258 150.319V150.33ZM209.108 128.155L220.854 111.014C220.854 111.014 221.226 110.466 220.952 110.236C220.678 110.005 220.218 110.488 220.218 110.488L205.676 125.326C205.226 125.786 205.27 126.521 205.763 126.927L207.518 128.374C208.012 128.78 208.746 128.682 209.108 128.155V128.155Z" fill="#1B2634"/>
<path d="M251.363 125.106L253.392 127.037C253.83 127.453 253.841 128.144 253.425 128.583L217.355 166.473C216.939 166.911 216.248 166.922 215.809 166.506L213.1 163.928C212.716 163.566 212.651 162.985 212.936 162.547L232.709 132.048C232.752 131.982 232.665 131.917 232.61 131.972L208.132 157.688C207.716 158.127 207.025 158.138 206.586 157.721L204.557 155.791C204.119 155.374 204.108 154.683 204.513 154.245L240.583 116.355C240.999 115.916 241.69 115.905 242.129 116.322L244.706 118.779C245.09 119.141 245.156 119.722 244.871 120.16L224.549 151.503C224.506 151.569 224.593 151.635 224.648 151.58L249.806 125.15C250.222 124.712 250.913 124.701 251.352 125.117L251.363 125.106Z" fill="#1B2634"/>
<path d="M270.16 144.824L272.046 146.897C272.452 147.347 272.419 148.038 271.969 148.443L233.301 183.679C232.851 184.085 232.16 184.052 231.755 183.613L229.232 180.85C228.881 180.466 228.848 179.874 229.166 179.457L251.045 150.439C251.089 150.374 251.012 150.308 250.957 150.352L224.714 174.27C224.264 174.676 223.573 174.643 223.168 174.193L221.281 172.12C220.876 171.671 220.908 170.98 221.358 170.574L260.027 135.338C260.476 134.933 261.167 134.965 261.573 135.415L263.964 138.047C264.314 138.431 264.347 139.023 264.029 139.44L241.537 169.258C241.493 169.324 241.581 169.39 241.624 169.346L268.602 144.77C269.052 144.364 269.743 144.397 270.149 144.846L270.16 144.824Z" fill="#1B2634"/>
<path d="M279.098 155.298L281.357 158.061C281.74 158.522 281.664 159.213 281.203 159.597L240.703 192.727C240.243 193.111 239.552 193.034 239.168 192.573L236.909 189.81C236.525 189.349 236.591 188.658 237.062 188.274L277.562 155.144C278.023 154.76 278.714 154.826 279.098 155.298Z" fill="#1B2634"/>
<path d="M295.745 176.957L297.401 179.216C297.752 179.698 297.653 180.389 297.171 180.74L254.96 211.655C254.477 212.006 253.786 211.907 253.436 211.425L251.22 208.409C250.913 207.981 250.946 207.4 251.308 207.016L276.158 180.499C276.213 180.444 276.137 180.356 276.071 180.411L247.426 201.39C246.943 201.741 246.252 201.643 245.901 201.16L244.245 198.901C243.895 198.418 243.993 197.728 244.476 197.377L286.686 166.462C287.169 166.111 287.86 166.209 288.211 166.692L290.316 169.565C290.623 169.993 290.591 170.574 290.229 170.958L264.687 198.21C264.632 198.265 264.709 198.353 264.775 198.298L294.221 176.737C294.703 176.386 295.394 176.485 295.745 176.968V176.957Z" fill="#1B2634"/>
<path d="M296.611 211.315L294.714 208.288C294.396 207.784 294.55 207.104 295.054 206.786L303.29 201.61C304.606 200.787 305.001 199.055 304.167 197.739L304.091 197.618C303.268 196.302 301.535 195.907 300.219 196.741L266.53 217.928C265.214 218.751 264.819 220.483 265.652 221.799L265.729 221.92C266.552 223.236 268.284 223.631 269.6 222.797L277.836 217.621C278.341 217.303 278.494 216.623 278.176 216.119L277.804 215.526C277.486 215.022 277.639 214.342 278.144 214.024L280.15 212.763C280.655 212.445 281.335 212.598 281.653 213.103L285.085 218.564C285.403 219.069 285.25 219.749 284.745 220.067L273.033 227.425C269.392 229.717 264.578 228.621 262.286 224.98L261.397 223.565C259.105 219.924 260.202 215.11 263.843 212.818L296.787 192.102C300.428 189.81 305.242 190.906 307.534 194.547L308.422 195.962C310.714 199.603 309.618 204.417 305.977 206.709L298.114 211.655C297.609 211.973 296.929 211.82 296.611 211.315V211.315Z" fill="#1B2634"/>
</svg>
