<svg width="59" height="59" viewBox="0 0 59 59" fill="none" xmlns="http://www.w3.org/2000/svg">
<g clip-path="url(#clip0_53_4192)">
<path d="M29.2902 58.34C45.3341 58.34 58.3402 45.3339 58.3402 29.29C58.3402 13.2461 45.3341 0.239998 29.2902 0.239998C13.2464 0.239998 0.240234 13.2461 0.240234 29.29C0.240234 45.3339 13.2464 58.34 29.2902 58.34Z" fill="white" stroke="#C2CED5" stroke-width="0.48" stroke-miterlimit="10"/>
<path d="M42.97 17.55C42.43 17.01 41.56 17.01 41.02 17.55L37.76 20.81L33.52 25.05L29.28 29.29L25.04 33.53L20.8 29.29L17.54 26.03C17 25.49 16.13 25.49 15.59 26.03L13.3 28.32C12.76 28.86 12.76 29.73 13.3 30.27L16.56 33.53L20.8 37.77L24.06 41.03C24.6 41.57 25.47 41.57 26.01 41.03L29.27 37.77L33.51 33.53L37.75 29.29L41.99 25.05L45.25 21.79C45.79 21.25 45.79 20.38 45.25 19.84L42.96 17.55H42.97Z" fill="#009540"/>
</g>
<defs>
<clipPath id="clip0_53_4192">
<rect width="58.57" height="58.57" fill="white"/>
</clipPath>
</defs>
</svg>
