<svg width="389" height="389" viewBox="0 0 389 389" fill="none" xmlns="http://www.w3.org/2000/svg">
<path d="M300.777 0.0110282C298.044 79.2156 265.928 153.297 209.607 209.618C153.286 265.94 79.2045 298.055 0 300.788V388.983C212.24 383.242 383.242 212.24 388.983 0H300.788L300.777 0.0110282Z" fill="#9747FF"/>
<path d="M154.067 270.767C157.631 268.651 162.237 269.824 164.353 273.388L171.197 284.914C173.313 288.479 172.14 293.085 168.576 295.201L166.404 296.484C165.911 296.78 165.746 297.427 166.042 297.921L177.25 316.805C177.546 317.299 177.382 317.946 176.888 318.242L173.938 319.997C173.445 320.293 172.798 320.128 172.502 319.635L146.785 276.317C146.489 275.823 146.653 275.176 147.147 274.88L154.078 270.767H154.067ZM166.645 288.106L159.375 275.845C158.618 274.562 156.951 274.145 155.668 274.902L154.132 275.812C153.639 276.108 153.475 276.755 153.771 277.249L162.73 292.339C163.026 292.832 163.673 292.997 164.167 292.701L165.702 291.79C166.985 291.034 167.402 289.367 166.645 288.084V288.106Z" fill="white"/>
<path d="M191.529 277.665C193.426 278.016 195.181 279.08 196.354 280.802L207.606 297.197C207.935 297.68 207.814 298.327 207.332 298.656L204.502 300.597C204.02 300.926 203.373 300.805 203.044 300.322L191.551 283.576C190.706 282.348 189.028 282.03 187.8 282.875L186.32 283.883C185.837 284.212 185.716 284.87 186.045 285.342L198.471 303.448C198.8 303.931 198.679 304.578 198.197 304.907L195.367 306.848C194.885 307.177 194.238 307.056 193.909 306.573L165.406 265.032C165.077 264.549 165.198 263.902 165.68 263.573L172.326 259.011C175.748 256.664 180.409 257.531 182.755 260.952L190.344 272.007C191.518 273.717 191.891 275.746 191.529 277.632V277.665ZM185.322 279.277C186.55 278.433 186.868 276.755 186.024 275.527L177.963 263.771C177.119 262.542 175.441 262.224 174.212 263.069L172.743 264.078C172.26 264.407 172.14 265.065 172.469 265.536L182.405 280.012C182.734 280.495 183.392 280.615 183.863 280.286L185.333 279.277H185.322Z" fill="white"/>
<path d="M188.48 247.134L189.741 246.136C192.998 243.57 197.714 244.129 200.28 247.387L223.464 276.832C226.03 280.089 225.471 284.805 222.213 287.371L220.952 288.369C217.695 290.935 212.98 290.376 210.413 287.119L187.23 257.673C184.664 254.416 185.223 249.7 188.48 247.134ZM219.373 280.594L195.663 250.49C194.742 249.317 193.042 249.119 191.869 250.04L191.759 250.128C190.586 251.049 190.388 252.749 191.309 253.923L215.019 284.026C215.941 285.2 217.64 285.397 218.814 284.476L218.923 284.388C220.097 283.467 220.294 281.767 219.373 280.594Z" fill="white"/>
<path d="M200.302 237.527L206.29 232.143C209.372 229.368 214.12 229.62 216.884 232.702L241.943 260.557C244.717 263.639 244.465 268.377 241.383 271.151L235.395 276.536C234.968 276.92 234.299 276.887 233.915 276.459L200.225 238.997C199.842 238.569 199.874 237.9 200.302 237.516V237.527ZM238.115 264.582L212.486 236.091C211.488 234.983 209.777 234.895 208.67 235.893L207.343 237.089C206.915 237.473 206.882 238.142 207.266 238.569L235.099 269.517C235.483 269.945 236.152 269.978 236.58 269.594L237.907 268.399C239.014 267.401 239.102 265.69 238.104 264.582H238.115Z" fill="white"/>
<path d="M224.001 214.936L226.403 212.48C226.808 212.063 227.477 212.052 227.883 212.458L259.325 243.12C262.297 246.016 262.351 250.764 259.456 253.736L258.338 254.888C255.442 257.86 250.694 257.914 247.722 255.019L216.28 224.357C215.864 223.951 215.853 223.282 216.259 222.876L218.66 220.419C219.066 220.003 219.735 219.992 220.141 220.398L251.889 251.356C252.953 252.398 254.664 252.376 255.706 251.313L255.804 251.214C256.846 250.15 256.824 248.439 255.76 247.397L224.012 216.439C223.595 216.033 223.584 215.364 223.99 214.958L224.001 214.936Z" fill="white"/>
<path d="M253.995 207.501L251.769 210.1C251.385 210.549 250.716 210.593 250.277 210.22L243.171 204.145C242.03 203.169 240.33 203.311 239.354 204.441L239.267 204.54C238.291 205.68 238.433 207.38 239.563 208.356L268.679 233.261C269.82 234.237 271.52 234.095 272.496 232.965L272.583 232.867C273.559 231.726 273.417 230.026 272.287 229.05L265.181 222.975C264.731 222.591 264.687 221.922 265.06 221.483L267.286 218.884C267.67 218.434 268.339 218.391 268.778 218.763L275.577 224.576C278.725 227.263 279.087 231.989 276.4 235.126L275.336 236.376C272.649 239.523 267.923 239.885 264.786 237.198L236.284 212.82C233.136 210.133 232.774 205.406 235.461 202.27L236.525 201.019C239.212 197.883 243.938 197.51 247.075 200.197L253.874 206.009C254.324 206.393 254.368 207.062 253.995 207.501Z" fill="white"/>
<path d="M244.235 191.731L252.986 180.15C253.337 179.689 253.995 179.591 254.456 179.942L256.276 181.312C256.737 181.663 256.824 182.321 256.484 182.782L254.412 185.524C254.061 185.984 254.159 186.642 254.62 186.993L291.325 214.717C291.786 215.068 291.885 215.726 291.534 216.186L289.461 218.928C289.11 219.389 288.452 219.487 287.992 219.136L251.286 191.413C250.826 191.062 250.168 191.16 249.817 191.621L247.744 194.363C247.393 194.823 246.735 194.922 246.274 194.571L244.454 193.2C243.993 192.849 243.906 192.191 244.246 191.731H244.235Z" fill="white"/>
<path d="M257.23 173.976L259.16 171.135C259.489 170.653 260.136 170.532 260.619 170.861L302.281 199.188C302.764 199.517 302.884 200.164 302.555 200.647L300.625 203.487C300.296 203.969 299.649 204.09 299.166 203.761L257.504 175.434C257.022 175.105 256.901 174.458 257.23 173.976Z" fill="white"/>
<path d="M266.683 159.423L267.517 158.052C269.677 154.51 274.294 153.391 277.825 155.552L309.826 175.05C313.368 177.211 314.487 181.828 312.327 185.359L311.493 186.73C309.333 190.272 304.716 191.391 301.184 189.23L269.184 169.732C265.642 167.571 264.523 162.954 266.683 159.423ZM307.315 179.996L274.59 160.059C273.318 159.28 271.651 159.686 270.884 160.958L270.807 161.079C270.028 162.351 270.434 164.018 271.706 164.797L304.431 184.734C305.703 185.513 307.37 185.107 308.148 183.835L308.225 183.714C309.004 182.442 308.598 180.775 307.326 179.996H307.315Z" fill="white"/>
<path d="M280.085 135.428L281.335 133.037C281.598 132.522 282.234 132.324 282.75 132.587L327.417 155.881C327.932 156.144 328.129 156.78 327.866 157.295L326.199 160.487C325.969 160.936 325.443 161.156 324.96 161.002L291.479 150.825C291.413 150.803 291.369 150.902 291.435 150.935L321.747 166.749C322.262 167.012 322.46 167.648 322.197 168.163L320.946 170.554C320.683 171.069 320.047 171.267 319.532 171.004L274.864 147.7C274.349 147.425 274.152 146.8 274.415 146.285L275.994 143.247C276.224 142.797 276.751 142.578 277.233 142.732L311.636 153.194C311.701 153.216 311.745 153.117 311.68 153.084L280.523 136.832C280.008 136.568 279.81 135.932 280.074 135.417L280.085 135.428Z" fill="white"/>
</svg>
