<svg width="398" height="1080" viewBox="0 0 398 1080" fill="none" xmlns="http://www.w3.org/2000/svg">
<path d="M0.10498 47.9313C125.218 181.984 193.875 355.729 193.875 540.018C193.875 724.307 125.218 898.052 0.105021 1032.1L144.396 1176.4C482.242 819.768 482.242 260.232 144.396 -96.3961L0.105021 47.8952L0.10498 47.9313Z" fill="#9747FF"/>
<path d="M203.051 730.928C205.42 721.634 214.875 716.019 224.169 718.387L254.222 726.048C263.516 728.417 269.132 737.872 266.763 747.166L265.31 752.818C264.987 754.11 265.777 755.437 267.068 755.76L316.301 768.32C317.593 768.643 318.383 769.97 318.06 771.262L316.104 778.959C315.781 780.251 314.453 781.041 313.162 780.718L200.217 751.921C198.925 751.598 198.135 750.27 198.458 748.978L203.069 730.911L203.051 730.928ZM251.997 738.715L220.042 730.552C216.705 729.69 213.296 731.736 212.435 735.073L211.412 739.074C211.089 740.366 211.879 741.694 213.171 742.017L252.517 752.046C253.809 752.369 255.137 751.58 255.46 750.288L256.483 746.287C257.344 742.95 255.299 739.541 251.961 738.679L251.997 738.715Z" fill="white"/>
<path d="M275.627 680.924C279.305 678.394 283.916 677.264 288.653 678.161L333.885 686.576C335.212 686.827 336.074 688.083 335.822 689.411L334.369 697.215C334.118 698.543 332.862 699.404 331.534 699.153L285.334 690.559C281.943 689.931 278.677 692.156 278.049 695.547L277.278 699.62C277.026 700.947 277.906 702.221 279.215 702.454L329.166 711.748C330.494 712 331.355 713.256 331.104 714.583L329.65 722.388C329.399 723.716 328.143 724.577 326.816 724.326L212.22 702.993C210.892 702.741 210.031 701.486 210.282 700.158L213.691 681.821C215.449 672.384 224.492 666.176 233.93 667.934L264.431 673.604C269.15 674.483 273.079 677.192 275.573 680.87L275.627 680.924ZM268.109 693.717C268.737 690.326 266.512 687.06 263.121 686.432L230.7 680.386C227.309 679.758 224.044 681.983 223.416 685.374L222.662 689.429C222.411 690.756 223.29 692.03 224.6 692.263L264.539 699.691C265.866 699.943 267.14 699.063 267.374 697.754L268.127 693.699L268.109 693.717Z" fill="white"/>
<path d="M220.688 635.961L221.119 632.265C222.249 622.738 230.879 615.938 240.407 617.068L326.51 627.313C336.038 628.444 342.838 637.074 341.707 646.601L341.277 650.297C340.146 659.824 331.516 666.624 321.989 665.494L235.885 655.249C226.358 654.119 219.558 645.489 220.688 635.961ZM325.972 640.16L237.931 629.7C234.504 629.287 231.4 631.745 230.987 635.172L230.951 635.495C230.538 638.922 232.996 642.026 236.423 642.438L324.465 652.899C327.892 653.311 330.996 650.853 331.409 647.426L331.444 647.103C331.857 643.676 329.399 640.573 325.972 640.16Z" fill="white"/>
<path d="M224.313 600.903L225.299 582.297C225.802 572.716 233.983 565.36 243.546 565.88L330.117 570.455C339.698 570.957 347.036 579.121 346.534 588.702L345.547 607.308C345.475 608.636 344.327 609.676 342.999 609.605L226.591 603.432C225.263 603.361 224.223 602.212 224.295 600.885L224.313 600.903ZM330.44 583.302L241.896 578.619C238.451 578.439 235.508 581.095 235.329 584.539L235.114 588.666C235.042 589.994 236.083 591.142 237.41 591.214L333.58 596.309C334.907 596.381 336.056 595.341 336.127 594.013L336.343 589.886C336.522 586.441 333.867 583.499 330.422 583.319L330.44 583.302Z" fill="white"/>
<path d="M226.125 525.169L226.035 517.221C226.017 515.875 227.094 514.763 228.421 514.763L330.027 513.489C339.626 513.364 347.485 521.043 347.61 530.642L347.664 534.356C347.79 543.955 340.11 551.813 330.511 551.939L228.906 553.213C227.56 553.231 226.448 552.154 226.448 550.826L226.358 542.878C226.34 541.532 227.417 540.42 228.744 540.42L331.337 539.128C334.782 539.092 337.545 536.257 337.509 532.813L337.509 532.49C337.473 529.045 334.638 526.282 331.193 526.318L228.601 527.609C227.255 527.627 226.143 526.551 226.143 525.223L226.125 525.169Z" fill="white"/>
<path d="M263.031 463.933L263.642 471.827C263.749 473.191 262.726 474.357 261.399 474.465L239.832 476.152C236.37 476.421 233.822 479.435 234.073 482.88L234.091 483.185C234.36 486.648 237.374 489.195 240.819 488.944L329.202 482.055C332.665 481.785 335.212 478.771 334.961 475.326L334.943 475.021C334.674 471.558 331.66 469.011 328.215 469.262L306.649 470.948C305.285 471.056 304.119 470.033 304.011 468.706L303.401 460.811C303.293 459.448 304.316 458.281 305.644 458.174L326.277 456.559C335.822 455.805 344.147 462.946 344.883 472.474L345.188 476.259C345.942 485.804 338.801 494.129 329.274 494.865L242.757 501.611C233.212 502.365 224.887 495.224 224.151 485.697L223.846 481.911C223.11 472.384 230.233 464.041 239.761 463.305L260.394 461.69C261.758 461.583 262.924 462.605 263.031 463.933Z" fill="white"/>
<path d="M221.263 454.101L216.634 420.836C216.454 419.509 217.369 418.271 218.697 418.091L223.918 417.355C225.246 417.176 226.466 418.109 226.663 419.419L227.758 427.295C227.937 428.623 229.175 429.538 230.503 429.359L335.912 414.664C337.24 414.485 338.478 415.4 338.657 416.728L339.752 424.604C339.931 425.932 339.016 427.17 337.688 427.349L232.279 442.044C230.951 442.223 230.036 443.461 230.216 444.789L231.31 452.666C231.49 453.993 230.575 455.231 229.247 455.411L224.026 456.146C222.698 456.326 221.478 455.393 221.281 454.083L221.263 454.101Z" fill="white"/>
<path d="M213.476 403.791L211.986 395.987C211.735 394.659 212.596 393.403 213.924 393.152L328.43 371.334C329.758 371.083 331.014 371.944 331.265 373.272L332.754 381.077C333.005 382.404 332.144 383.66 330.816 383.912L216.31 405.729C214.983 405.98 213.727 405.119 213.476 403.791Z" fill="white"/>
<path d="M205.133 364.516L204.254 360.91C201.993 351.58 207.716 342.196 217.028 339.954L301.284 319.5C310.614 317.239 319.998 322.962 322.24 332.274L323.119 335.881C325.38 345.211 319.657 354.594 310.345 356.837L226.089 377.291C216.759 379.551 207.375 373.828 205.133 364.516ZM305.267 331.7L219.11 352.621C215.754 353.428 213.691 356.819 214.516 360.156L214.588 360.479C215.396 363.834 218.787 365.898 222.142 365.09L308.299 344.17C311.655 343.363 313.718 339.971 312.91 336.616L312.839 336.293C312.031 332.938 308.64 330.875 305.285 331.682L305.267 331.7Z" fill="white"/>
<path d="M187.801 303.334L185.935 297.377C185.522 296.103 186.24 294.74 187.514 294.327L298.7 259.358C299.974 258.945 301.338 259.663 301.75 260.937L304.244 268.885C304.603 269.998 304.101 271.218 303.06 271.756L231.633 309.883C231.489 309.955 231.579 310.188 231.741 310.134L307.205 286.415C308.479 286.002 309.842 286.72 310.255 287.993L312.121 293.95C312.534 295.224 311.816 296.588 310.542 297L199.337 331.951C198.046 332.346 196.7 331.646 196.287 330.373L193.901 322.819C193.542 321.707 194.044 320.487 195.085 319.948L268.486 280.781C268.629 280.709 268.54 280.476 268.378 280.53L190.815 304.913C189.541 305.325 188.177 304.608 187.765 303.334L187.801 303.334Z" fill="white"/>
</svg>
